<svg width="24" height="24" viewBox="0 0 24 24" fill="none" xmlns="http://www.w3.org/2000/svg">
<path d="M12.0004 2C9.05192 2 6.65333 4.31542 6.65333 7.16188C6.65333 10.0081 9.05192 12.3225 12.0004 12.3225C14.9489 12.3225 17.3463 10.0081 17.3463 7.16188C17.3463 4.31542 14.9489 2 12.0004 2ZM12.0004 5.02438C13.2208 5.02438 14.2131 5.98372 14.2131 7.16188C14.2131 8.33954 13.2208 9.29814 12.0004 9.29814C10.7799 9.29814 9.7865 8.33956 9.7865 7.16188C9.7865 5.98372 10.7799 5.02438 12.0004 5.02438ZM7.592 12.4981C7.06297 12.4902 6.54275 12.7419 6.24097 13.2062C5.77979 13.9136 6.00072 14.847 6.73167 15.2919C7.69854 15.8775 8.7477 16.293 9.83572 16.5325L6.84755 19.4187C6.23583 20.0096 6.23635 20.9666 6.8482 21.5575C7.15486 21.8524 7.55483 22 7.95582 22C8.35639 22 8.7577 21.8522 9.06344 21.5569L11.9992 18.7213L14.9375 21.5569C15.5487 22.1476 16.5398 22.1476 17.1521 21.5569C17.7641 20.9664 17.7641 20.0084 17.1521 19.4188L14.1626 16.5331C15.2509 16.2936 16.3005 15.8779 17.2667 15.2919C17.9991 14.847 18.2203 13.9126 17.7593 13.2063C17.2977 12.4988 16.3314 12.2856 15.5984 12.7313C13.4094 14.0606 10.5889 14.0598 8.40053 12.7313C8.14864 12.5781 7.8691 12.5023 7.592 12.4981V12.4981Z" fill="#EB722E"/>
</svg>
