<svg width="24" height="24" viewBox="0 0 24 24" fill="none" xmlns="http://www.w3.org/2000/svg">
<path d="M12 1C9.82441 1 7.69767 1.64514 5.88873 2.85383C4.07979 4.06253 2.66989 5.78049 1.83733 7.79048C1.00477 9.80047 0.786929 12.0122 1.21137 14.146C1.6358 16.2798 2.68345 18.2398 4.22183 19.7782C5.76021 21.3165 7.72022 22.3642 9.85401 22.7886C11.9878 23.2131 14.1995 22.9952 16.2095 22.1627C18.2195 21.3301 19.9375 19.9202 21.1462 18.1113C22.3549 16.3023 23 14.1756 23 12C23 9.08262 21.8411 6.28473 19.7782 4.22183C17.7153 2.15893 14.9174 1 12 1ZM12 21.1667C10.187 21.1667 8.41473 20.629 6.90728 19.6218C5.39983 18.6146 4.22491 17.1829 3.53111 15.5079C2.83731 13.8329 2.65578 11.9898 3.00947 10.2117C3.36317 8.43351 4.23621 6.80017 5.51819 5.51819C6.80017 4.23621 8.43352 3.36317 10.2117 3.00947C11.9898 2.65577 13.8329 2.8373 15.5079 3.5311C17.1829 4.22491 18.6146 5.39982 19.6218 6.90727C20.6291 8.41472 21.1667 10.187 21.1667 12C21.1667 13.2038 20.9296 14.3958 20.4689 15.5079C20.0082 16.6201 19.333 17.6306 18.4818 18.4818C17.6306 19.333 16.6201 20.0082 15.5079 20.4689C14.3958 20.9296 13.2038 21.1667 12 21.1667Z" fill="#F2475C"/>
<path d="M7.68739 6.61013C7.54624 6.47379 7.35719 6.39835 7.16095 6.40005C6.96472 6.40176 6.77701 6.48047 6.63825 6.61924C6.49949 6.75802 6.42078 6.94574 6.41907 7.14198C6.41737 7.33823 6.4928 7.52729 6.62913 7.66845L10.9512 11.9908L6.62838 16.3132C6.5569 16.3822 6.49989 16.4648 6.46066 16.5561C6.42144 16.6475 6.40079 16.7457 6.39993 16.8451C6.39907 16.9444 6.418 17.043 6.45563 17.135C6.49326 17.227 6.54884 17.3105 6.61911 17.3808C6.68938 17.4511 6.77294 17.5067 6.86492 17.5443C6.95689 17.5819 7.05544 17.6009 7.15482 17.6C7.25419 17.5991 7.3524 17.5785 7.44371 17.5393C7.53502 17.5 7.6176 17.443 7.68664 17.3715L12.0095 13.0492L16.3316 17.3715C16.4727 17.5079 16.6618 17.5833 16.858 17.5816C17.0542 17.5799 17.2419 17.5012 17.3807 17.3624C17.5195 17.2236 17.5982 17.0359 17.5999 16.8397C17.6016 16.6434 17.5261 16.4544 17.3898 16.3132L13.0677 11.9908L17.3898 7.66845C17.5261 7.52729 17.6016 7.33823 17.5999 7.14198C17.5982 6.94574 17.5195 6.75802 17.3807 6.61924C17.2419 6.48047 17.0542 6.40176 16.858 6.40005C16.6618 6.39835 16.4727 6.47379 16.3316 6.61013L12.0095 10.9325L7.68739 6.60938V6.61013Z" fill="#F2475C"/>
</svg>
