<svg width="97" height="36" viewBox="0 0 97 36" fill="none" xmlns="http://www.w3.org/2000/svg">
<path d="M81.6438 34.3251L97 27.5L83.5004 27L80.3539 32.9434C79.9095 33.7829 80.7759 34.7109 81.6438 34.3251Z" fill="#CB394B"/>
<path d="M0 2C0 0.895431 0.89543 0 2 0H95C96.1046 0 97 0.895431 97 2V26C97 27.1046 96.1046 28 95 28H2C0.895431 28 0 27.1046 0 26V2Z" fill="#F2475C"/>
<path d="M24.49 19C24.4153 19 24.3453 18.972 24.28 18.916C24.224 18.86 24.196 18.79 24.196 18.706L24.224 18.58L27.598 9.55C27.6633 9.31667 27.8267 9.2 28.088 9.2H29.614C29.8567 9.2 30.02 9.31667 30.104 9.55L33.478 18.58C33.4873 18.608 33.492 18.65 33.492 18.706C33.492 18.79 33.464 18.86 33.408 18.916C33.352 18.972 33.2867 19 33.212 19H31.994C31.8727 19 31.7793 18.972 31.714 18.916C31.6487 18.86 31.6067 18.7993 31.588 18.734L30.93 17.026H26.772L26.114 18.734C26.0393 18.9113 25.904 19 25.708 19H24.49ZM30.44 15.416L28.844 11.09L27.262 15.416H30.44ZM42.625 18.524C42.653 18.5613 42.667 18.6127 42.667 18.678C42.667 18.762 42.6344 18.8367 42.569 18.902C42.513 18.9673 42.4384 19 42.345 19H40.903C40.791 19 40.707 18.9813 40.651 18.944C40.595 18.8973 40.539 18.8367 40.483 18.762L38.075 14.912H36.745V18.664C36.745 18.7573 36.7124 18.8367 36.647 18.902C36.591 18.9673 36.5117 19 36.409 19H35.135C35.0417 19 34.9624 18.9673 34.897 18.902C34.8317 18.8367 34.799 18.7573 34.799 18.664V9.55C34.799 9.44733 34.827 9.36333 34.883 9.298C34.9484 9.23267 35.0324 9.2 35.135 9.2H36.409C36.5117 9.2 36.591 9.23267 36.647 9.298C36.7124 9.36333 36.745 9.44733 36.745 9.55V13.162L37.977 13.176L40.245 9.452C40.3384 9.284 40.5064 9.2 40.749 9.2H42.135C42.2284 9.2 42.2984 9.228 42.345 9.284C42.401 9.34 42.429 9.41 42.429 9.494C42.429 9.53133 42.4104 9.58733 42.373 9.662L39.727 13.932L42.625 18.524ZM51.6119 20.96C51.5186 20.96 51.4393 20.9273 51.3739 20.862C51.3086 20.806 51.2759 20.7267 51.2759 20.624V19H44.5139C44.4113 19 44.3273 18.9673 44.2619 18.902C44.2059 18.8367 44.1779 18.7527 44.1779 18.65V9.536C44.1779 9.43333 44.2106 9.354 44.2759 9.298C44.3413 9.23267 44.4206 9.2 44.5139 9.2H45.7879C45.8906 9.2 45.9699 9.23267 46.0259 9.298C46.0913 9.354 46.1239 9.43333 46.1239 9.536V17.25H50.2539V9.536C50.2539 9.43333 50.2866 9.354 50.3519 9.298C50.4173 9.23267 50.4966 9.2 50.5899 9.2H51.8499C51.9526 9.2 52.0366 9.23267 52.1019 9.298C52.1673 9.354 52.1999 9.43333 52.1999 9.536V17.25H52.8719C52.9746 17.25 53.0586 17.2827 53.1239 17.348C53.1893 17.4133 53.2219 17.4927 53.2219 17.586V20.624C53.2219 20.7173 53.1893 20.7967 53.1239 20.862C53.0586 20.9273 52.9746 20.96 52.8719 20.96H51.6119ZM55.1096 19C55.007 19 54.923 18.9673 54.8576 18.902C54.8016 18.8367 54.7736 18.7527 54.7736 18.65V9.55C54.7736 9.44733 54.8063 9.36333 54.8716 9.298C54.937 9.23267 55.021 9.2 55.1236 9.2H56.3836C56.4863 9.2 56.5656 9.23267 56.6216 9.298C56.687 9.36333 56.7196 9.44733 56.7196 9.55V15.976L61.3256 9.424C61.4283 9.27467 61.5636 9.2 61.7316 9.2H62.8936C62.9963 9.2 63.0756 9.23267 63.1316 9.298C63.197 9.36333 63.2296 9.44733 63.2296 9.55V18.664C63.2296 18.7573 63.197 18.8367 63.1316 18.902C63.0756 18.9673 62.9963 19 62.8936 19H61.6336C61.531 19 61.447 18.972 61.3816 18.916C61.3163 18.8507 61.2836 18.7667 61.2836 18.664V12.364L56.6916 18.776C56.6356 18.8507 56.5796 18.9067 56.5236 18.944C56.4676 18.9813 56.3883 19 56.2856 19H55.1096ZM72.4104 9.2C72.513 9.2 72.5924 9.23267 72.6484 9.298C72.7137 9.354 72.7464 9.43333 72.7464 9.536V18.664C72.7464 18.7573 72.7137 18.8367 72.6484 18.902C72.5924 18.9673 72.513 19 72.4104 19H71.1504C71.0477 19 70.9637 18.9673 70.8984 18.902C70.833 18.8367 70.8004 18.7573 70.8004 18.664V15.458H69.2604L67.3844 18.622C67.3284 18.7433 67.2584 18.8367 67.1744 18.902C67.0904 18.9673 66.9737 19 66.8244 19H65.5504C65.4757 19 65.4104 18.972 65.3544 18.916C65.2984 18.86 65.2704 18.79 65.2704 18.706C65.2704 18.6593 65.2844 18.608 65.3124 18.552L67.3424 15.234C66.7544 15.01 66.2924 14.6553 65.9564 14.17C65.6297 13.6753 65.4664 13.0733 65.4664 12.364C65.4664 11.776 65.597 11.244 65.8584 10.768C66.129 10.2827 66.5257 9.9 67.0484 9.62C67.571 9.34 68.2057 9.2 68.9524 9.2H72.4104ZM70.8004 10.754H69.0364C68.551 10.754 68.1684 10.9033 67.8884 11.202C67.6084 11.5007 67.4684 11.8927 67.4684 12.378C67.4684 12.8633 67.599 13.2367 67.8604 13.498C68.1217 13.75 68.5137 13.876 69.0364 13.876H70.8004V10.754Z" fill="white"/>
</svg>
