<svg width="44" height="44" viewBox="0 0 44 44" fill="none" xmlns="http://www.w3.org/2000/svg">
<g clip-path="url(#clip0)">
<path d="M43.6623 40.8143L38.1439 35.2958C37.496 34.6476 36.6953 34.2421 35.8568 34.0793V22.948C36.037 22.9631 36.2166 22.9705 36.3959 22.9705C38.0995 22.9705 39.7438 22.3018 40.9805 21.0651C42.5666 19.4789 43.2182 17.2234 42.7237 15.031C42.6509 14.7074 42.3981 14.4549 42.0745 14.3818C39.8824 13.8876 37.6266 14.5392 36.0407 16.1254C35.9776 16.1881 35.9169 16.2526 35.8568 16.3174V11.8198C37.1764 10.8103 37.9512 9.25774 37.9512 7.57659C37.9512 5.73229 37.0186 4.04173 35.4566 3.05479C35.176 2.87755 34.8188 2.87755 34.5382 3.05479C32.9762 4.04173 32.0436 5.73229 32.0436 7.57659C32.0436 9.25774 32.8184 10.8103 34.138 11.8198V12.9477C32.7248 11.5482 30.7233 10.9745 28.778 11.4132C28.4544 11.4864 28.2016 11.7392 28.1288 12.0625C27.688 14.0175 28.2691 16.029 29.6834 17.4436C30.7865 18.5467 32.2528 19.1429 33.7721 19.1429C33.894 19.1429 34.0158 19.1379 34.138 19.1305V22.5821C34.0262 22.4528 33.9098 22.3266 33.7876 22.2044C32.0806 20.4978 29.6602 19.7868 27.2996 20.294C27.1086 18.961 25.9599 17.9331 24.5755 17.9331H19.053L16.4799 14.3965C16.116 13.896 15.6628 13.4771 15.1522 13.1518C16.6517 12.5254 17.7085 11.044 17.7085 9.32018V7.26573H19.0335C19.5082 7.26573 19.8929 6.88103 19.8929 6.40636C19.8929 5.93169 19.5082 5.54698 19.0335 5.54698H17.9448V4.1703C17.9448 2.81847 16.8451 1.71873 15.4933 1.71873H11.4304C10.0785 1.71873 8.9788 2.81847 8.9788 4.1703V5.54698H7.89014C7.41547 5.54698 7.03077 5.93169 7.03077 6.40636C7.03077 6.88103 7.41547 7.26573 7.89014 7.26573H9.40748V9.32018C9.40748 10.6583 10.0446 11.85 11.0309 12.6096C9.05265 13.2404 7.61554 15.0951 7.61554 17.2798V26.6369C7.61554 28.6481 8.71427 30.4064 10.3424 31.346V36.8672H2.6211C1.1286 36.8672 -0.0859375 38.0817 -0.0859375 39.5742C-0.0859375 41.0667 1.1286 42.2813 2.6211 42.2813H3.72754C4.20221 42.2813 4.58692 41.8965 4.58692 41.4219C4.58692 40.9472 4.20221 40.5625 3.72754 40.5625H2.6211C2.07626 40.5625 1.63281 40.119 1.63281 39.5742C1.63281 39.0294 2.07626 38.5859 2.6211 38.5859H11.2018C11.6764 38.5859 12.0611 38.2012 12.0611 37.7266V31.9798C12.3821 32.0392 12.7124 32.0718 13.0504 32.0718H14.7527V37.6302C14.7527 39.2473 13.4371 40.5625 11.8204 40.5625H10.6025C10.1279 40.5625 9.74317 40.9472 9.74317 41.4219C9.74317 41.8965 10.1279 42.2813 10.6025 42.2813H11.8204C14.3851 42.2813 16.4715 40.1949 16.4715 37.6302V32.0718H19.6146V39.5742C19.6146 41.0667 20.8291 42.2813 22.3216 42.2813C23.8144 42.2813 25.0286 41.0667 25.0286 39.5742V30.25C25.0286 27.6853 22.9426 25.599 20.3779 25.599H16.2382V23.3975C16.3221 23.4243 16.4104 23.4388 16.5007 23.4388H24.5755C25.2771 23.4388 25.9179 23.1746 26.4047 22.7409C26.4567 24.519 27.1788 26.224 28.4732 27.5188C29.818 28.8636 31.6056 29.5904 33.4576 29.5904C33.6838 29.5904 33.9108 29.5789 34.138 29.5571V34.0823C33.3042 34.2468 32.5089 34.6509 31.8644 35.2958L26.3714 40.7888C26.0357 41.1241 26.0357 41.6683 26.3714 42.004C26.7068 42.3397 27.2513 42.3397 27.5866 42.004L33.0796 36.5114C34.1407 35.4499 35.8672 35.4499 36.9286 36.5114L42.4471 42.0295C42.615 42.1973 42.8348 42.2813 43.0547 42.2813C43.2746 42.2813 43.4945 42.1973 43.6623 42.0295C43.998 41.6938 43.998 41.1496 43.6623 40.8143ZM34.1243 17.4087C32.9332 17.5098 31.759 17.0881 30.8989 16.2284C30.0392 15.3684 29.6169 14.1944 29.7186 13.0031C30.9097 12.9017 32.0839 13.3237 32.944 14.1834C33.8037 15.0434 34.2256 16.2177 34.1243 17.4087ZM37.2559 17.3406C38.2889 16.308 39.7075 15.8135 41.1396 15.9662C41.292 17.3976 40.7978 18.8169 39.7653 19.8495C38.7323 20.8825 37.3137 21.3766 35.8816 21.2239C35.8662 21.0782 35.8591 20.9328 35.8568 20.7878V20.6206C35.8806 19.4 36.3687 18.2278 37.2559 17.3406ZM34.9974 4.85008C35.7792 5.53389 36.2324 6.51814 36.2324 7.57692C36.2324 8.63536 35.7792 9.61962 34.9974 10.3034C34.2156 9.61962 33.7624 8.6357 33.7624 7.57692C33.7624 6.51814 34.2156 5.53389 34.9974 4.85008ZM15.9898 9.32018C15.9898 10.6609 14.8988 11.7519 13.558 11.7519C12.2169 11.7519 11.1262 10.6609 11.1262 9.32018V7.26573H15.9898V9.32018ZM10.6975 4.1703C10.6975 3.76613 11.0262 3.43749 11.4304 3.43749H15.4933C15.8974 3.43749 16.2261 3.76613 16.2261 4.1703V5.54698H10.6975V4.1703ZM20.3779 27.3177C21.9946 27.3177 23.3099 28.6333 23.3099 30.25V39.5742C23.3099 40.119 22.8668 40.5625 22.3216 40.5625C21.7768 40.5625 21.3333 40.119 21.3333 39.5742V31.2124C21.3333 30.7381 20.9486 30.3531 20.474 30.3531H13.0501C11.234 30.3531 9.71867 29.0428 9.39774 27.3177H20.3779ZM24.5755 21.72H16.8861L15.2167 19.8432C14.9011 19.4883 14.358 19.4568 14.0031 19.772C13.6486 20.0875 13.6167 20.6307 13.9323 20.9855L14.5194 21.6452V25.599H9.3343V17.2798C9.3343 15.5251 10.762 14.0974 12.5167 14.0974C13.5311 14.0974 14.4932 14.5872 15.0901 15.4076L17.9207 19.298C18.0825 19.5206 18.3406 19.6518 18.6156 19.6518H24.5755C25.1458 19.6518 25.6097 20.1157 25.6097 20.6861C25.6097 21.2561 25.1455 21.72 24.5755 21.72ZM34.1018 27.833C32.477 28.0267 30.8606 27.4755 29.6887 26.3036C28.5168 25.1317 27.965 23.515 28.159 21.8902C29.7834 21.6955 31.4004 22.2481 32.5723 23.42C33.5798 24.4274 34.1273 25.7638 34.138 27.1512V27.2727C34.1353 27.459 34.1239 27.646 34.1018 27.833Z" fill="#008D4F"/>
<path d="M7.16437 40.5625C6.93811 40.5625 6.71756 40.6545 6.55676 40.8143C6.39697 40.9741 6.30566 41.196 6.30566 41.4219C6.30566 41.6478 6.39697 41.8697 6.55676 42.0295C6.71756 42.1893 6.93811 42.2813 7.16437 42.2813C7.39029 42.2813 7.61185 42.1893 7.77265 42.0295C7.93244 41.8697 8.02442 41.6478 8.02442 41.4219C8.02442 41.196 7.93244 40.9741 7.77265 40.8143C7.61185 40.6545 7.39029 40.5625 7.16437 40.5625Z" fill="#008D4F"/>
</g>
<defs>
<clipPath id="clip0">
<rect width="44" height="44" fill="white"/>
</clipPath>
</defs>
</svg>
