<svg width="44" height="44" viewBox="0 0 44 44" fill="none" xmlns="http://www.w3.org/2000/svg">
<path d="M13.6517 34.7084L12.4727 35.4159C13.8875 37.774 16.1027 39.5505 18.7103 40.4188L19.0321 40.5261L19.4673 39.2226L19.1448 39.1153C16.8486 38.3501 14.8982 36.7854 13.6517 34.7084Z" fill="#008D4F"/>
<path d="M19.2852 35.9672C19.7685 37.4172 20.5955 38.7551 21.6763 39.8358L22.2015 40.3611L23.1737 39.3889L22.6484 38.8637C21.7182 37.9328 21.006 36.7812 20.59 35.5321L19.2852 35.9672Z" fill="#008D4F"/>
<path d="M42.8897 21.5999L42.3686 19.5154C42.0826 18.3707 41.9375 17.1923 41.9375 16.0133V14.8266C41.9375 13.8538 41.1462 13.0625 40.1734 13.0625C39.8537 13.0625 39.5395 13.1498 39.2659 13.3141L38.1886 13.9597C36.8555 14.7599 35.4097 15.3361 33.8924 15.6729L32.8673 15.9005C28.7952 16.8059 25.3096 19.3187 23.1605 22.8566C20.6766 20.1671 17.402 18.1816 13.6214 17.2741L12.6858 17.05C12.3461 16.9689 12.0141 16.8699 11.6875 16.7564V10.3125H13.75C17.9197 10.3125 21.3125 6.91969 21.3125 2.75V0.6875H17.875C14.5289 0.6875 11.6875 2.87444 10.6941 5.89256C9.39056 3.60869 6.93688 2.0625 4.125 2.0625H0.6875V4.125C0.6875 8.29469 4.08031 11.6875 8.25 11.6875H10.3125V16.1466C9.82506 15.8909 9.35137 15.6069 8.9045 15.2728L8.22181 14.7606C7.57006 14.2711 6.56906 14.3777 6.03625 14.9937C5.72962 15.3471 5.59212 15.8153 5.65812 16.2793L5.68494 16.4649C6.01081 18.7454 5.89256 21.0354 5.33362 23.2705C4.98781 24.651 4.8125 26.0748 4.8125 27.5C4.8125 36.2196 11.9061 43.3125 20.625 43.3125C23.5565 43.3125 26.0982 41.6323 27.3529 39.1875H29.1582C36.9627 39.1875 43.3125 32.8377 43.3125 25.0326C43.3125 23.8762 43.1702 22.7212 42.8897 21.5999ZM17.875 2.0625H19.9375V2.75C19.9375 6.16206 17.1614 8.9375 13.75 8.9375H12.1846L12.2719 8.78419C13.4881 6.65638 15.5712 5.20575 17.9877 4.80288L17.7616 3.44644C15.3704 3.8445 13.2653 5.12875 11.8106 7.01937C12.3833 4.19513 14.8844 2.0625 17.875 2.0625ZM2.0625 4.125V3.4375H4.125C7.11562 3.4375 9.61675 5.57013 10.1887 8.39506C8.734 6.50444 6.62887 5.22019 4.23775 4.82212L4.01156 6.17788C6.42812 6.58075 8.51125 8.03138 9.72744 10.1592L9.81544 10.3125H8.25C4.83862 10.3125 2.0625 7.53706 2.0625 4.125ZM26.5719 37.4392C26.1009 35.0804 24.9466 32.9113 23.2059 31.1706L23.1715 31.1362L22.2365 32.1454C24.2468 34.1564 25.3687 36.8122 25.4272 39.6454C24.2908 41.0424 22.561 41.9375 20.625 41.9375C12.6637 41.9375 6.1875 35.4606 6.1875 27.5C6.1875 26.1869 6.34906 24.8765 6.66738 23.6033C7.26963 21.1949 7.39681 18.7275 7.0455 16.269L7.01869 16.0834C7.00562 15.9899 7.04825 15.9253 7.07506 15.8943C7.10188 15.8634 7.15962 15.8125 7.25381 15.8125C7.30537 15.8125 7.35488 15.829 7.39681 15.8599L8.08019 16.3721C8.77869 16.8953 9.52738 17.3271 10.3132 17.6791V19.9375V20.625V23.0312C10.3132 23.892 9.90206 24.7143 9.21319 25.2313C8.17987 26.0061 7.56319 27.2401 7.56319 28.5312V29.5625H8.93819V28.5312C8.93819 27.6705 9.34931 26.8482 10.0382 26.3312C10.252 26.1711 10.4438 25.9868 10.6198 25.7902C10.9546 28.0266 12.3049 30.019 14.2718 31.1431C15.3416 31.7549 16.1459 32.7353 16.5358 33.9054L17.8399 33.4702C17.3429 31.9797 16.3178 30.7299 14.9538 29.9496C13.3114 29.0111 12.1907 27.3309 11.9536 25.4547C12.7153 26.3374 13.7603 26.9383 14.9304 27.1336C16.0009 27.3123 16.8795 28.0624 17.2226 29.0929L18.5268 28.6577C18.2696 27.8857 17.8056 27.2222 17.2061 26.7211L18.2098 26.3196C19.206 25.9215 20.3782 26.1628 21.1344 26.9197L21.5139 27.2992L22.4861 26.3271L22.1072 25.9476C20.9667 24.8064 19.2012 24.4427 17.6997 25.0429L15.5987 25.883C15.4529 25.8424 15.3072 25.8032 15.1566 25.7778C14.0965 25.6011 13.1718 24.9714 12.6198 24.0501L11.6875 22.4971V20.625V19.9375V18.1878C11.9123 18.2566 12.1344 18.3315 12.3647 18.3872L13.3011 18.612C21.2561 20.5212 26.8125 27.5688 26.8125 35.75C26.8125 36.3364 26.7252 36.9016 26.5719 37.4392ZM29.1582 37.8125H27.8946C28.0809 37.1559 28.1875 36.4657 28.1875 35.75C28.1875 31.3335 26.6846 27.2236 24.1079 23.9621C26.0391 20.5391 29.3129 18.0998 33.165 17.2439L34.1901 17.0163C35.8517 16.6471 37.4351 16.0153 38.8953 15.1394L39.9726 14.4939C40.2188 14.3468 40.5625 14.542 40.5625 14.8266V16.0133C40.5625 17.3044 40.7213 18.5948 41.0348 19.8481L41.5559 21.9333C41.8089 22.9453 41.9375 23.9882 41.9375 25.0326C41.9375 32.0794 36.2044 37.8125 29.1582 37.8125Z" fill="#008D4F"/>
<path d="M29.0713 29.0766L35.9452 22.2027L36.9173 23.1748L30.0434 30.0487L29.0713 29.0766Z" fill="#008D4F"/>
<path d="M39.1399 23.6039C38.3355 28.4309 35.4673 32.6425 31.2715 35.1608L31.9789 36.3399C36.5205 33.6146 39.6253 29.0551 40.4964 23.8308L40.5534 23.4891L39.197 23.2623L39.1399 23.6039Z" fill="#008D4F"/>
<path d="M34.9646 19.2569C31.7148 19.7216 28.6472 21.2554 26.3262 23.5764L27.2983 24.5486C29.411 22.4366 32.2022 21.0402 35.1599 20.6181L34.9646 19.2569Z" fill="#008D4F"/>
</svg>
