<svg width="20" height="20" viewBox="0 0 20 20" fill="none" xmlns="http://www.w3.org/2000/svg">
<path d="M3.83927 2.30015C3.63762 2.10538 3.36755 1.9976 3.08722 2.00004C2.80689 2.00248 2.53873 2.11493 2.3405 2.31317C2.14226 2.51142 2.02982 2.77959 2.02739 3.05994C2.02495 3.34029 2.13271 3.61038 2.32747 3.81204L8.50188 9.98686L2.3264 16.1617C2.22429 16.2603 2.14284 16.3783 2.0868 16.5087C2.03077 16.6392 2.00127 16.7795 2.00004 16.9215C1.99881 17.0634 2.02586 17.2042 2.07962 17.3356C2.13337 17.4671 2.21276 17.5864 2.31315 17.6868C2.41354 17.7872 2.53291 17.8666 2.66431 17.9204C2.7957 17.9741 2.93649 18.0012 3.07845 18C3.22041 17.9987 3.36071 17.9692 3.49115 17.9132C3.62159 17.8572 3.73957 17.7757 3.8382 17.6736L10.0137 11.4988L16.1881 17.6736C16.3897 17.8683 16.6598 17.9761 16.9401 17.9737C17.2205 17.9712 17.4886 17.8588 17.6869 17.6606C17.8851 17.4623 17.9975 17.1941 18 16.9138C18.0024 16.6334 17.8946 16.3633 17.6999 16.1617L11.5255 9.98686L17.6999 3.81204C17.8946 3.61038 18.0024 3.34029 18 3.05994C17.9975 2.77959 17.8851 2.51142 17.6869 2.31317C17.4886 2.11493 17.2205 2.00248 16.9401 2.00004C16.6598 1.9976 16.3897 2.10538 16.1881 2.30015L10.0137 8.47497L3.83927 2.29908V2.30015Z" fill="#BDBDBD"/>
</svg>
