<svg width="28" height="28" viewBox="0 0 28 28" fill="none" xmlns="http://www.w3.org/2000/svg">
<path d="M10.4999 24.8889C11.5738 24.8889 12.4443 24.0183 12.4443 22.9444C12.4443 21.8706 11.5738 21 10.4999 21C9.42598 21 8.55542 21.8706 8.55542 22.9444C8.55542 24.0183 9.42598 24.8889 10.4999 24.8889Z" fill="#008D4F"/>
<path d="M20.6112 24.8889C21.6851 24.8889 22.5556 24.0183 22.5556 22.9444C22.5556 21.8706 21.6851 21 20.6112 21C19.5373 21 18.6667 21.8706 18.6667 22.9444C18.6667 24.0183 19.5373 24.8889 20.6112 24.8889Z" fill="#008D4F"/>
<path d="M25.7445 4.96999C25.672 4.87587 25.579 4.79959 25.4725 4.74701C25.366 4.69443 25.2488 4.66695 25.13 4.66666H7.16338L6.81338 3.55444C6.77493 3.43502 6.70817 3.32667 6.61878 3.23864C6.52939 3.1506 6.42004 3.0855 6.30005 3.04888L3.11116 2.06888C3.0131 2.03875 2.91007 2.02823 2.80795 2.03791C2.70583 2.0476 2.60662 2.07731 2.51598 2.12533C2.33292 2.22233 2.1959 2.38808 2.13505 2.5861C2.07419 2.78413 2.0945 2.99822 2.1915 3.18128C2.2885 3.36434 2.45424 3.50136 2.65227 3.56222L5.44449 4.41777L9.00671 15.6722L7.73893 16.7144L7.63782 16.8155C7.3243 17.1786 7.14667 17.6393 7.13532 18.1188C7.12397 18.5984 7.2796 19.067 7.5756 19.4444C7.78759 19.7022 8.05697 19.9069 8.3622 20.0419C8.66742 20.177 9.00002 20.2387 9.33338 20.2222H22.3145C22.5208 20.2222 22.7186 20.1403 22.8645 19.9944C23.0103 19.8485 23.0923 19.6507 23.0923 19.4444C23.0923 19.2382 23.0103 19.0403 22.8645 18.8945C22.7186 18.7486 22.5208 18.6667 22.3145 18.6667H9.20893C9.11937 18.6636 9.03211 18.6375 8.95558 18.5909C8.87905 18.5442 8.81584 18.4787 8.77205 18.4005C8.72827 18.3223 8.70538 18.2341 8.70562 18.1445C8.70585 18.0549 8.72919 17.9668 8.77338 17.8889L10.6478 16.3333H22.6489C22.8266 16.3385 23.0007 16.2827 23.1422 16.1751C23.2837 16.0676 23.3841 15.9148 23.4267 15.7422L25.9156 5.6311C25.9393 5.51515 25.9361 5.39533 25.9065 5.28076C25.8768 5.1662 25.8214 5.05991 25.7445 4.96999Z" fill="#008D4F"/>
</svg>
