<svg width="18" height="18" viewBox="0 0 18 18" fill="none" xmlns="http://www.w3.org/2000/svg">
<path d="M8.12769 0.662878C8.40226 -0.220961 9.59775 -0.220959 9.87231 0.66288L11.3681 5.47799C11.4909 5.87325 11.8431 6.14087 12.2405 6.14087H17.081C17.9696 6.14087 18.339 7.33006 17.6202 7.87631L13.704 10.8522C13.3826 11.0965 13.2481 11.5295 13.3708 11.9248L14.8667 16.7399C15.1412 17.6237 14.1741 18.3587 13.4552 17.8124L9.53912 14.8365C9.21765 14.5922 8.78235 14.5922 8.46088 14.8365L4.54476 17.8124C3.82594 18.3587 2.85877 17.6237 3.13333 16.7399L4.62916 11.9248C4.75195 11.5295 4.61743 11.0965 4.29596 10.8522L0.379842 7.87631C-0.338982 7.33006 0.0304462 6.14087 0.918962 6.14087H5.75955C6.15691 6.14087 6.50907 5.87325 6.63186 5.47799L8.12769 0.662878Z" fill="#F8D15A"/>
</svg>
