<svg width="24" height="24" viewBox="0 0 24 24" fill="none" xmlns="http://www.w3.org/2000/svg">
<path d="M13.3328 15.2973C13.3005 15.2654 13.2569 15.2474 13.2114 15.2474C13.166 15.2474 13.1223 15.2654 13.09 15.2973L10.5936 17.7939C9.4378 18.9499 7.48709 19.0723 6.21096 17.7939C4.93268 16.5156 5.05513 14.5668 6.21096 13.4109L8.70736 10.9143C8.77396 10.8477 8.77396 10.7381 8.70736 10.6715L7.85231 9.81641C7.82001 9.78442 7.77638 9.76648 7.73093 9.76648C7.68547 9.76648 7.64184 9.78442 7.60954 9.81641L5.11314 12.313C3.29562 14.1307 3.29562 17.072 5.11314 18.8876C6.93066 20.7031 9.87177 20.7052 11.6871 18.8876L14.1835 16.3909C14.2501 16.3243 14.2501 16.2148 14.1835 16.1482L13.3328 15.2973ZM18.8885 5.11325C17.071 3.29558 14.1298 3.29558 12.3145 5.11325L9.81592 7.60986C9.78393 7.64216 9.76599 7.68579 9.76599 7.73125C9.76599 7.77671 9.78393 7.82034 9.81592 7.85264L10.6688 8.70561C10.7354 8.77222 10.845 8.77222 10.9116 8.70561L13.408 6.20901C14.5638 5.05309 16.5145 4.93062 17.7907 6.20901C19.0689 7.48739 18.9465 9.43612 17.7907 10.592L15.2943 13.0886C15.2623 13.1209 15.2443 13.1646 15.2443 13.21C15.2443 13.2555 15.2623 13.2991 15.2943 13.3314L16.1493 14.1865C16.2159 14.2531 16.3255 14.2531 16.3921 14.1865L18.8885 11.6899C20.7038 9.87227 20.7038 6.93092 18.8885 5.11325ZM14.1084 8.99996C14.0761 8.96798 14.0324 8.95003 13.987 8.95003C13.9415 8.95003 13.8979 8.96798 13.8656 8.99996L8.99954 13.8643C8.96755 13.8966 8.94961 13.9402 8.94961 13.9857C8.94961 14.0311 8.96755 14.0747 8.99954 14.107L9.85029 14.9579C9.91689 15.0245 10.0265 15.0245 10.0931 14.9579L14.957 10.0936C15.0236 10.027 15.0236 9.91739 14.957 9.85079L14.1084 8.99996Z" fill="#008D4F"/>
</svg>
