<svg width="26" height="26" viewBox="0 0 26 26" fill="none" xmlns="http://www.w3.org/2000/svg">
<g clip-path="url(#clip0)">
<path d="M23.0205 25.9999H2.97901C1.33557 25.9999 0 24.6642 0 23.0209V7.31262C0 5.66919 1.33557 4.33362 2.97901 4.33362H6.7707C7.2192 4.33362 7.58319 4.69761 7.58319 5.14611C7.58319 5.59461 7.2192 5.9586 6.7707 5.9586H2.97901C2.23257 5.9586 1.62498 6.56619 1.62498 7.31262V23.0209C1.62498 23.7672 2.23257 24.375 2.97901 24.375H23.0205C23.767 24.375 24.3748 23.7672 24.3748 23.0209V13.8126C24.3748 13.3641 24.7388 13.0001 25.1873 13.0001C25.6358 13.0001 25.9997 13.3641 25.9997 13.8126V23.0209C25.9997 24.6642 24.664 25.9999 23.0205 25.9999Z" fill="#008D4F"/>
<path d="M7.3113 17.3194C7.25179 17.3194 7.19209 17.3129 7.13258 17.2976C6.76541 17.2121 6.5 16.8979 6.5 16.521V14.896C6.5 9.0721 11.2385 4.33362 17.0624 4.33362H17.3332V0.812692C17.3332 0.481228 17.5347 0.183288 17.8424 0.0587166C18.1488 -0.0646648 18.5009 0.00991942 18.7306 0.249343L25.7723 7.56177C26.0756 7.87598 26.0756 8.37426 25.7723 8.68847L18.7306 16.0009C18.5009 16.2403 18.1466 16.3141 17.8424 16.1915C17.5347 16.0669 17.3332 15.769 17.3332 15.4375V11.9168H16.0462C12.6381 11.9168 9.57541 13.8104 8.05238 16.8578C7.91254 17.1395 7.61896 17.3194 7.3113 17.3194ZM17.0624 5.95861C12.5124 5.95861 8.74467 9.37639 8.19322 13.78C10.1626 11.5832 12.9868 10.2918 16.0462 10.2918H18.1457C18.5941 10.2918 18.9581 10.6558 18.9581 11.1043V13.4226L24.0594 8.12512L18.9581 2.82766V5.14611C18.9581 5.59461 18.5941 5.95861 18.1457 5.95861H17.0624Z" fill="#008D4F"/>
</g>
<defs>
<clipPath id="clip0">
<rect width="26" height="26" fill="white"/>
</clipPath>
</defs>
</svg>
