<svg width="44" height="44" viewBox="0 0 44 44" fill="none" xmlns="http://www.w3.org/2000/svg">
<path d="M21.8711 36.6953C22.3448 36.6953 22.7305 36.3096 22.7305 35.8359C22.7305 35.3623 22.3448 34.9766 21.8711 34.9766C21.3968 34.9766 21.0117 35.3623 21.0117 35.8359C21.0117 36.3096 21.3968 36.6953 21.8711 36.6953Z" fill="#008D4F"/>
<path d="M43.1406 28.1016H39.9431C39.4916 26.2552 37.6144 24.8369 35.3153 24.6798C34.8235 24.1783 33.5801 22.7211 33.5801 20.7969C33.5801 19.636 34.5113 18.1956 35.4116 16.8025C35.8047 16.1942 36.2029 15.5782 36.5466 14.9561C37.0179 14.2955 38.1146 13.1484 40.0469 13.1484C40.9579 13.1484 42.2812 14.1528 42.2812 15.7266C42.2812 16.7065 41.9832 17.8747 40.5628 17.875C40.0465 17.875 39.6585 17.1163 39.9193 16.6927C40.1681 16.2885 40.0422 15.7591 39.6377 15.5104C39.2335 15.2616 38.7044 15.3875 38.4557 15.792C37.9981 16.5352 37.9904 17.4544 38.4352 18.25C38.8914 19.0664 39.7263 19.5938 40.5625 19.5938C42.6508 19.5938 44 18.0757 44 15.7266C44 13.1944 41.9167 11.4297 40.0469 11.4297C39.0559 11.4297 38.2231 11.6459 37.5305 11.9655C37.5322 11.9208 37.5332 11.8758 37.5332 11.8308C37.5332 6.50473 34.8436 5.92969 33.6875 5.92969C31.8969 5.92969 30.5078 7.63904 30.5078 9.10938C30.5078 10.7284 31.5679 11.8594 33.0859 11.8594C33.5606 11.8594 33.9453 11.4747 33.9453 11C33.9453 10.5253 33.5606 10.1406 33.0859 10.1406C32.3105 10.1406 32.2266 9.41956 32.2266 9.10938C32.2266 8.54575 32.8953 7.64844 33.6875 7.64844C35.5382 7.64844 35.8145 10.2689 35.8145 11.8308C35.8145 12.5093 35.5049 13.277 35.0692 14.0739C34.6748 14.6523 34.3488 15.2808 33.9681 15.8696C32.9325 17.4718 31.8613 19.1288 31.8613 20.7969C31.8613 22.5344 32.5797 23.946 33.2528 24.8876C31.528 25.3707 30.207 26.593 29.8381 28.1016H27.0525C26.7034 26.6739 25.5009 25.5023 23.9108 24.9712C25.3093 23.5439 27.2422 20.9781 27.2422 17.7031C27.2422 16.5087 26.9595 15.3942 26.4117 14.3942C27.1838 13.517 28.875 11.3105 28.875 8.80859C28.875 5.79205 27.3416 2.14844 25.4375 2.14844C23.5334 2.14844 22 5.79205 22 8.80859C22 9.52765 22.1407 10.2219 22.3582 10.8677C22.1031 10.7586 21.9419 10.7049 21.9235 10.6989C21.9006 10.6915 21.8775 10.6848 21.854 10.6794C21.6542 10.6321 19.8673 10.2289 18.6498 10.6093C18.1969 10.7509 17.9445 11.233 18.0858 11.6862C18.2275 12.139 18.7095 12.3914 19.1627 12.2501C19.7307 12.0725 20.8301 12.2102 21.4196 12.3431C21.8395 12.4911 25.5234 13.9017 25.5234 17.7031C25.5234 21.3008 22.5035 24.0101 21.6928 24.6725C19.3403 24.7883 17.4067 26.224 16.9475 28.1016H14.1619C13.7795 26.5379 12.374 25.2811 10.5562 24.8373C11.0953 23.7221 11.752 21.8778 11.752 19.5078C11.752 18.3859 11.4787 17.3376 11.0846 16.3328C11.0799 16.2989 11.0739 16.2647 11.0648 16.2304C10.8872 15.5523 11.0843 14.8235 11.5791 14.3291C12.3495 13.5583 13.6036 13.5583 14.3741 14.3291C15.1448 15.0995 15.1448 16.3536 14.3741 17.1241C14.0387 17.4597 14.0387 18.0039 14.3741 18.3396C14.7064 18.6716 15.2579 18.6713 15.5896 18.3396C17.0304 16.8988 17.0304 14.5543 15.5896 13.1135C14.8917 12.4156 13.9635 12.0312 12.9766 12.0312C11.9896 12.0312 11.0614 12.4156 10.3635 13.1135C10.1702 13.3072 10.0023 13.5207 9.85898 13.7477C9.05936 12.1954 8.31445 10.7264 8.31445 9.25272C8.31445 8.77805 7.92975 8.39334 7.45508 8.39334C6.98041 8.39334 6.5957 8.77805 6.5957 9.25272C6.5957 11.1662 7.49704 12.9158 8.3685 14.6077C8.73038 15.3096 9.08252 15.9955 9.36987 16.6789C8.93784 16.5054 8.47223 16.4141 7.99219 16.4141C7.00525 16.4141 6.07706 16.7984 5.37915 17.4963C3.93835 18.9371 3.93835 21.2816 5.37915 22.7224C5.71149 23.0544 6.26135 23.0554 6.59436 22.7224C6.93005 22.3867 6.93005 21.8426 6.59436 21.5069C5.82394 20.7365 5.83502 19.4934 6.59436 18.7119C7.99219 17.2734 9.96875 18.3047 10.0332 19.5078C10.1712 22.0849 9.11642 23.9547 8.69312 24.6792C6.39026 24.8336 4.50903 26.2529 4.05685 28.1016H0.859375C0.384705 28.1016 0 28.4863 0 28.9609V32.3984C0 32.8731 0.384705 33.2578 0.859375 33.2578H2.38913L3.41702 38.3973C3.8175 40.399 5.58929 41.8516 7.63065 41.8516H36.3694C38.4107 41.8516 40.1825 40.399 40.583 38.3973L41.6109 33.2578H43.1406C43.6153 33.2578 44 32.8731 44 32.3984V28.9609C44 28.4863 43.6153 28.1016 43.1406 28.1016ZM25.4375 12.8782C24.7497 12.0141 23.7188 10.4451 23.7188 8.80859C23.7188 7.67899 23.9749 6.42987 24.422 5.38083C24.8665 4.33716 25.2918 3.95984 25.4375 3.87894C25.5832 3.95984 26.0085 4.33716 26.453 5.38083C26.9001 6.42987 27.1562 7.67899 27.1562 8.80859C27.1562 10.4454 26.125 12.0145 25.4375 12.8782ZM34.8906 26.3828C36.3845 26.3828 37.6588 27.1012 38.1317 28.1016H31.6495C32.1225 27.1012 33.3968 26.3828 34.8906 26.3828ZM22 26.3828C23.4938 26.3828 24.7681 27.1012 25.2411 28.1016H18.7589C19.2319 27.1012 20.5062 26.3828 22 26.3828ZM9.10938 26.3828C10.6032 26.3828 11.8775 27.1012 12.3505 28.1016H5.86826C6.34125 27.1012 7.61554 26.3828 9.10938 26.3828ZM39.5141 34.9766H25.3086C24.8349 34.9766 24.4492 35.3623 24.4492 35.8359C24.4492 36.3096 24.8349 36.6953 25.3086 36.6953H39.1704L38.8975 38.0602C38.6574 39.261 37.5943 40.1328 36.3694 40.1328H7.63065C6.4057 40.1328 5.34256 39.261 5.10254 38.0602L4.82962 36.6953H18.4336C18.9073 36.6953 19.293 36.3096 19.293 35.8359C19.293 35.3623 18.9073 34.9766 18.4336 34.9766H4.48587L4.14212 33.2578H39.8579L39.5141 34.9766ZM42.2812 31.5391H1.71875V29.8203H42.2812V31.5391Z" fill="#008D4F"/>
</svg>
