<svg width="30" height="30" viewBox="0 0 30 30" fill="none" xmlns="http://www.w3.org/2000/svg">
<path d="M29.8166 10.183L19.8169 0.183355C19.5731 -0.060386 19.1769 -0.060386 18.9331 0.183355L0.183783 18.9327C-0.0599588 19.1764 -0.0599588 19.5727 0.183783 19.8164L10.1835 29.8161C10.3047 29.9386 10.4647 29.9998 10.6247 29.9998C10.7847 29.9998 10.9447 29.9386 11.0672 29.8173L29.8166 11.068C30.0603 10.823 30.0603 10.428 29.8166 10.183ZM7.31733 17.3178L4.81739 19.8177C4.69488 19.9389 4.53492 20.0002 4.37491 20.0002C4.21489 20.0002 4.05494 19.9389 3.93242 19.8177C3.68868 19.5739 3.68868 19.1777 3.93242 18.9339L6.43236 16.434C6.6761 16.1903 7.07235 16.1903 7.3161 16.434C7.55984 16.6778 7.56107 17.0728 7.31733 17.3178ZM18.1107 18.1115C17.6682 18.554 17.067 18.7665 16.3982 18.7665C15.2932 18.7665 14.0021 18.1878 12.9221 17.1065C12.1321 16.3165 11.5771 15.3716 11.3609 14.4466C11.1209 13.4154 11.3184 12.518 11.9171 11.918C12.5159 11.318 13.4133 11.1205 14.4458 11.3618C15.3708 11.578 16.3157 12.1317 17.1057 12.9229C18.8419 14.6578 19.2844 16.9378 18.1107 18.1115ZM26.0667 11.068L23.5667 13.5679C23.4442 13.6891 23.2843 13.7504 23.1243 13.7504C22.9643 13.7504 22.8043 13.6892 22.6818 13.5679C22.438 13.3242 22.438 12.9279 22.6818 12.6842L25.1817 10.1843C25.4255 9.94051 25.8217 9.94051 26.0655 10.1843C26.3092 10.428 26.3104 10.823 26.0667 11.068Z" fill="#008D4F"/>
</svg>
