<svg width="44" height="44" viewBox="0 0 44 44" fill="none" xmlns="http://www.w3.org/2000/svg">
<path d="M29.1245 42.8108H12.1604C12.0083 42.8108 11.861 42.7618 11.7443 42.6723C11.6277 42.5829 11.549 42.4587 11.5221 42.3215L8.46825 26.7704C8.45145 26.6848 8.45535 26.5969 8.47967 26.5128C8.504 26.4287 8.54815 26.3505 8.60901 26.2838C8.66987 26.2171 8.74597 26.1634 8.83193 26.1266C8.91789 26.0897 9.01163 26.0706 9.10652 26.0706H32.1783C32.2732 26.0706 32.3669 26.0897 32.4529 26.1266C32.5389 26.1634 32.6149 26.2171 32.6758 26.2838C32.7367 26.3505 32.7808 26.4287 32.8051 26.5128C32.8295 26.5969 32.8334 26.6848 32.8166 26.7704L29.7634 42.3215C29.7364 42.4588 29.6577 42.583 29.5409 42.6725C29.4241 42.762 29.2767 42.8109 29.1245 42.8108ZM12.7026 41.6216H28.5822L31.4051 27.2598H9.8823L12.7026 41.6216Z" fill="#008D4F"/>
<path d="M34.1864 27.2598H7.09944C6.82997 27.2595 6.57164 27.1612 6.38109 26.9866C6.19055 26.8119 6.08335 26.5751 6.08301 26.3281V23.0239C6.08352 22.777 6.1908 22.5403 6.38132 22.3658C6.57185 22.1913 6.83008 22.0931 7.09944 22.0928H34.1864C34.4557 22.0931 34.714 22.1913 34.9045 22.3658C35.095 22.5403 35.2023 22.777 35.2028 23.0239V26.3287C35.2023 26.5756 35.095 26.8122 34.9045 26.9868C34.714 27.1613 34.4557 27.2595 34.1864 27.2598ZM7.38031 26.0706H33.9055V23.2814H7.38031V26.0706Z" fill="#008D4F"/>
<path d="M20.9695 23.2814H20.9202C20.7487 23.2695 20.5893 23.1957 20.4772 23.0762C20.365 22.9567 20.3093 22.8012 20.3221 22.644C20.4248 21.3865 20.6563 20.1407 21.0136 18.923C22.2918 14.5 25.1377 10.592 29.1035 7.81359C29.1712 7.76611 29.2484 7.73131 29.3307 7.71118C29.413 7.69104 29.4988 7.68597 29.5832 7.69624C29.6677 7.70651 29.7491 7.73192 29.8228 7.77103C29.8966 7.81014 29.9612 7.86218 30.013 7.92418C30.0647 7.98618 30.1027 8.05692 30.1247 8.13237C30.1466 8.20781 30.1522 8.28649 30.141 8.3639C30.1298 8.44131 30.102 8.51594 30.0594 8.58352C30.0167 8.65111 29.9599 8.71033 29.8923 8.7578C26.1545 11.376 23.4722 15.059 22.2674 19.2274C21.9319 20.3742 21.7148 21.5473 21.6188 22.7314C21.6065 22.8813 21.5327 23.0214 21.4122 23.1235C21.2917 23.2255 21.1335 23.282 20.9695 23.2814Z" fill="#008D4F"/>
<path d="M28.9678 16.2842C27.0354 16.2152 25.1514 15.7102 23.4829 14.8138C23.3563 14.7514 23.2559 14.6523 23.1975 14.532C23.1118 14.3536 21.1218 10.1546 23.6437 6.43358C25.8264 3.21861 30.6264 1.45385 37.9114 1.18926C38.0005 1.18537 38.0896 1.19872 38.1727 1.22842C38.2559 1.25813 38.3313 1.30354 38.394 1.36169C38.4573 1.41923 38.5069 1.48811 38.5398 1.56402C38.5727 1.63992 38.5882 1.72123 38.5854 1.80288C38.5704 2.23515 38.1469 12.4277 32.4232 15.4524C31.3728 16.0069 30.1799 16.2941 28.9678 16.2842ZM24.3047 13.8672C27.2742 15.2835 29.7858 15.4726 31.772 14.4231C36.1101 12.1298 37.0571 4.65812 37.2427 2.40936C30.821 2.73877 26.6217 4.29958 24.7484 7.05255C22.8589 9.83228 23.981 13.0722 24.3041 13.8666L24.3047 13.8672Z" fill="#008D4F"/>
<path d="M21.6402 19.6715C21.5119 19.6715 21.3865 19.6367 21.2798 19.5714C21.1731 19.5061 21.09 19.4133 21.0408 19.3046C20.2873 17.6373 19.1773 16.1251 17.7762 14.8572C16.3751 13.5892 14.7113 12.5913 12.8828 11.9222C12.802 11.8942 12.7281 11.8518 12.6654 11.7974C12.6028 11.743 12.5526 11.6777 12.5178 11.6053C12.4831 11.5328 12.4644 11.4548 12.463 11.3757C12.4615 11.2966 12.4773 11.218 12.5095 11.1445C12.5416 11.0711 12.5894 11.0043 12.65 10.948C12.7107 10.8917 12.783 10.847 12.8627 10.8167C12.9424 10.7863 13.0279 10.7709 13.1142 10.7712C13.2005 10.7715 13.2859 10.7876 13.3654 10.8186C15.3541 11.5466 17.1638 12.6322 18.6877 14.0113C20.2117 15.3904 21.4191 17.0351 22.2389 18.8486C22.2799 18.9389 22.2959 19.0371 22.2856 19.1345C22.2752 19.2319 22.2388 19.3254 22.1796 19.4068C22.1204 19.4882 22.0402 19.555 21.9461 19.6011C21.852 19.6473 21.7469 19.6715 21.6402 19.6715Z" fill="#008D4F"/>
<path d="M13.8001 17.0441C13.3872 17.0437 12.976 16.9958 12.5761 16.9014C7.97071 15.8228 5.54412 8.90052 5.44098 8.6062C5.41419 8.52805 5.40529 8.44567 5.41486 8.36423C5.42443 8.28278 5.45226 8.20402 5.4966 8.1329C5.54093 8.06177 5.60083 7.99982 5.67252 7.95091C5.74421 7.902 5.82615 7.8672 5.9132 7.84869C10.9727 6.74809 14.6466 7.12388 16.8384 8.96534C19.3915 11.1106 18.8966 14.3916 18.8745 14.5307C18.8529 14.6614 18.7844 14.7816 18.6799 14.8726C17.0427 16.3169 15.4062 17.0441 13.8001 17.0441ZM6.91731 8.8595C7.59515 10.5143 9.7065 15.0017 12.8991 15.7479C14.3761 16.0927 15.9608 15.5606 17.6103 14.1633C17.6615 13.4991 17.6855 11.2831 15.953 9.83404C14.1919 8.36301 11.1536 8.03539 6.91731 8.8595Z" fill="#008D4F"/>
</svg>
