<svg width="20" height="20" viewBox="0 0 20 20" fill="none" xmlns="http://www.w3.org/2000/svg">
<g clip-path="url(#clip0)">
<path d="M19.5385 10.2255C19.8462 10.1491 20 9.92003 20 9.69094V3.81094C20 3.50548 19.7692 3.20003 19.3846 3.20003H4.92308L4.69231 1.44366C4.69231 1.13821 4.38462 0.909119 4.15385 0.909119H0V2.05457H3.61538L4.69231 12.5164L3.69231 14.96C3.61538 14.96 3.53846 14.96 3.53846 14.96C2.23077 14.96 1.15385 16.0291 1.15385 17.3273C1.15385 18.6255 2.23077 19.6946 3.53846 19.6946C4.84615 19.6946 5.92308 18.6255 5.92308 17.3273C5.92308 16.8691 5.76923 16.4873 5.61539 16.1818H15.6923C15.4615 16.5637 15.3846 16.9455 15.3846 17.3273C15.3846 18.6255 16.4615 19.6946 17.7692 19.6946C19.0769 19.6946 20.1538 18.6255 20.1538 17.3273C20.1538 16.0291 19.0769 14.96 17.7692 14.96H5L5.76923 13.1273L19.5385 10.2255ZM18.8462 4.42185V9.23276L5.84615 11.8291L5.07692 4.34548H18.8462V4.42185ZM3.53846 18.3964C2.92308 18.3964 2.38462 17.8618 2.38462 17.2509C2.38462 16.64 2.92308 16.1055 3.53846 16.1055C4.15385 16.1055 4.69231 16.64 4.69231 17.2509C4.69231 17.8618 4.15385 18.3964 3.53846 18.3964ZM18.8462 17.2509C18.8462 17.8618 18.3077 18.3964 17.6923 18.3964C17.0769 18.3964 16.5385 17.8618 16.5385 17.2509C16.5385 16.64 17.0769 16.1055 17.6923 16.1055C18.3077 16.1055 18.8462 16.5637 18.8462 17.2509Z" fill="#008D4F"/>
</g>
<defs>
<clipPath id="clip0">
<rect width="20" height="20" fill="white"/>
</clipPath>
</defs>
</svg>
