<svg width="20" height="20" viewBox="0 0 20 20" fill="none" xmlns="http://www.w3.org/2000/svg">
<path fill-rule="evenodd" clip-rule="evenodd" d="M9.99818 6.1833L8.91358 5.048C8.05959 4.15409 6.81678 3.21729 5.57455 3.21729C4.29074 3.21729 3.29104 3.65858 2.61593 4.33245C1.941 5.00613 1.5 6.00248 1.5 7.28092C1.5 8.64858 2.02653 9.81296 2.93752 10.9488C3.8773 12.1205 5.14728 13.1689 6.55071 14.3189L6.55131 14.3194C6.57461 14.3385 6.59796 14.3576 6.62138 14.3768C7.72518 15.2821 8.95907 16.2941 9.99889 17.4212C11.0491 16.2838 12.2952 15.2633 13.4095 14.3507L13.4484 14.3188C13.4485 14.3188 13.4486 14.3187 13.4487 14.3186C14.8517 13.1691 16.1218 12.121 17.0618 10.9493C17.9732 9.81341 18.5 8.64886 18.5 7.28092C18.5 6.00248 18.059 5.00608 17.3841 4.33239C16.7091 3.65851 15.7096 3.21729 14.4264 3.21729C13.1824 3.21729 11.9356 4.15532 11.0828 5.048L9.99818 6.1833ZM14.3991 15.4791C13.0982 16.5446 11.7536 17.6473 10.72 18.8691C10.5473 19.0727 10.2936 19.1918 10.0255 19.1918H9.97273C9.70545 19.1918 9.45091 19.0736 9.27727 18.8691C8.25043 17.6532 6.91298 16.5561 5.61882 15.4945L5.6 15.4791C2.84636 13.2227 0 10.89 0 7.28092C0 4.00547 2.29182 1.71729 5.57455 1.71729C7.06267 1.71729 8.37985 2.54647 9.31142 3.35574C9.5721 3.5822 9.80259 3.8071 9.99818 4.01183C10.1925 3.80841 10.4215 3.58508 10.6804 3.36009C11.6133 2.54945 12.9349 1.71729 14.4264 1.71729C17.7082 1.71729 20 4.00547 20 7.28092C20 10.89 17.1533 13.2224 14.4012 15.4773L14.3991 15.4791Z" fill="#F2475C"/>
</svg>
