<svg width="32" height="44" viewBox="0 0 32 44" fill="none" xmlns="http://www.w3.org/2000/svg">
<path d="M24.9558 11.7604C25.1511 11.7604 25.348 11.7462 25.5446 11.7177C26.5232 11.5754 27.3827 11.0924 27.9648 10.3575L31.4978 5.89842C31.641 5.71769 31.6719 5.48188 31.5795 5.2752C31.487 5.06852 31.2844 4.92045 31.0441 4.88384C30.9814 4.8743 29.5958 4.66573 27.9039 4.64854C27.362 3.17953 26.7182 2.03665 26.6885 1.98406C26.5762 1.7858 26.3599 1.655 26.1169 1.63842C25.8742 1.6214 25.6388 1.7216 25.4957 1.90242L21.9627 6.36153C21.3805 7.09638 21.1453 7.99503 21.3004 8.89205C21.4153 9.55625 21.7345 10.1603 22.2177 10.6459C21.6829 11.2285 20.7412 12.2886 19.7089 13.6079V13.0444C19.7089 12.6884 19.394 12.3998 19.0057 12.3998C18.6174 12.3998 18.3026 12.6884 18.3026 13.0444V15.507C17.7383 16.3167 17.1888 17.1728 16.7029 18.0419V14.4224C16.7029 14.4223 16.7029 14.4221 16.7029 14.4219V13.3114L18.7515 11.4335C19.0261 11.1818 19.0261 10.7736 18.7515 10.522C18.4769 10.2703 18.0317 10.2703 17.7572 10.522L16.7027 11.4884V9.49352C18.4127 9.19136 19.7087 7.80992 19.7087 6.15554V0.644466C19.7087 0.421115 19.5825 0.213662 19.3752 0.0961855C19.1679 -0.0212909 18.9092 -0.0319471 18.6911 0.067998C18.6343 0.094037 17.3805 0.672137 15.9996 1.56924C14.6195 0.672481 13.3657 0.0944667 13.308 0.067998C13.0899 -0.0319471 12.8311 -0.0212049 12.6239 0.0961855C12.4166 0.213662 12.2904 0.421115 12.2904 0.644466V6.15554C12.2904 7.80992 13.5864 9.19145 15.2964 9.49352V12.8661L13.4907 11.2109C13.2161 10.9592 12.7709 10.9592 12.4964 11.2109C12.2218 11.4626 12.2218 11.8707 12.4964 12.1223L15.2965 14.6891V18.0419C13.5031 14.8345 10.8423 11.8011 9.78168 10.6459C10.2649 10.1603 10.5841 9.55625 10.6989 8.89205C10.8541 7.99503 10.6189 7.09638 10.0367 6.36153L6.50372 1.90242C6.36057 1.7216 6.12516 1.62149 5.88244 1.63842C5.63944 1.655 5.42316 1.7858 5.31085 1.98406C5.28085 2.03665 4.63707 3.17962 4.09529 4.64863C2.40414 4.66599 1.01786 4.8743 0.955138 4.88384C0.714764 4.92045 0.512077 5.06852 0.419733 5.2752C0.327296 5.48188 0.358233 5.71769 0.501389 5.89842L4.03435 10.3575C4.61654 11.0924 5.47604 11.5754 6.4546 11.7177C6.65128 11.7463 6.84797 11.7604 7.04335 11.7604C7.60256 11.7604 8.15006 11.644 8.652 11.42C8.86922 11.6569 9.16931 11.99 9.52453 12.3999H8.90719C8.51888 12.3999 8.20406 12.6885 8.20406 13.0445C8.20406 13.4004 8.51888 13.689 8.90719 13.689H10.6056C11.6329 14.9553 12.8234 16.5486 13.7915 18.1925C12.6478 17.1624 11.3769 16.2381 9.98915 15.4284C5.77847 12.9722 1.9846 12.429 1.82514 12.4071C1.62292 12.3793 1.41714 12.4337 1.26208 12.5561C1.10692 12.6785 1.01776 12.8568 1.01776 13.0445C1.01776 13.1475 1.03323 15.6071 2.37423 19.0316C3.5852 22.1239 6.1575 26.6141 11.5389 30.5758V32.9377L8.55665 43.1893C8.50031 43.3827 8.54531 43.5892 8.67844 43.7481C8.81147 43.9069 9.01753 43.9999 9.23597 43.9999H22.7631C22.9816 43.9999 23.1876 43.9069 23.3207 43.7481C23.4538 43.5892 23.4988 43.3828 23.4424 43.1893L20.4602 32.9377V30.5758C25.8415 26.6141 28.4139 22.1239 29.6249 19.0316C30.966 15.6071 30.9813 13.1475 30.9813 13.0445C30.9813 12.8568 30.8921 12.6785 30.737 12.5561C30.582 12.4336 30.3766 12.3791 30.1739 12.4071C30.0808 12.4199 27.8593 12.7348 24.9345 13.9688C23.018 14.7773 20.5302 16.1084 18.2016 18.2034C19.1709 16.556 20.3645 14.9583 21.3941 13.689H23.0918C23.4801 13.689 23.7949 13.4004 23.7949 13.0445C23.7949 12.6885 23.4801 12.3999 23.0918 12.3999H22.4749C22.8301 11.9901 23.13 11.657 23.3471 11.4201C23.8492 11.644 24.3966 11.7604 24.9558 11.7604ZM29.6584 6.02638L28.5967 7.3664C28.5467 6.92528 28.4556 6.45297 28.32 5.94714C28.8151 5.96261 29.2738 5.99312 29.6584 6.02638ZM3.40238 7.3664L2.34048 6.02612C2.72476 5.99286 3.18338 5.96253 3.67913 5.94723C3.54348 6.45306 3.45245 6.92528 3.40238 7.3664ZM8.38875 10.0676C7.89094 10.399 7.28231 10.5328 6.67472 10.4445C6.06722 10.3562 5.5336 10.0563 5.1721 9.60008C4.16382 8.32752 5.23332 5.32023 6.0661 3.54382L8.89875 7.11899C9.6449 8.06077 9.41615 9.38352 8.38875 10.0676ZM18.3024 1.73871V3.39223C17.9796 3.06317 17.6017 2.73077 17.1688 2.39552C17.5792 2.14132 17.9698 1.919 18.3024 1.73871ZM13.6967 6.15554V1.7369C15.5094 2.7257 18.3025 4.58272 18.3025 6.15554C18.3025 7.31956 17.2694 8.26651 15.9996 8.26651C14.7299 8.26651 13.6967 7.31956 13.6967 6.15554ZM3.71945 18.6513C2.88742 16.5438 2.58967 14.8067 2.48307 13.8491C3.79435 14.1419 6.42844 14.8793 9.23419 16.516C11.5585 17.8719 13.5324 19.5686 15.1007 21.5593C16.9151 23.8622 18.1905 26.572 18.9002 29.622H17.2625C16.3633 26.0063 14.5937 22.9284 11.9961 20.4681C11.7261 20.2123 11.2809 20.2056 11.0018 20.4533C10.7227 20.7008 10.7155 21.1089 10.9856 21.3646C13.3329 23.5878 14.9549 26.3634 15.8169 29.622H12.4891C7.33866 25.8527 4.87735 21.5844 3.71945 18.6513ZM19.0539 30.911V32.3775H12.9451V30.911H19.0539ZM21.8479 42.7108H18.8697L18.7507 41.8926C18.6995 41.5398 18.3458 41.2917 17.9609 41.3389C17.576 41.3859 17.3056 41.7101 17.3569 42.0629L17.4511 42.7107H10.1512L12.7822 33.6665H16.1355L16.956 39.3073C17.003 39.6313 17.305 39.8668 17.6521 39.8668C17.683 39.8668 17.7143 39.8649 17.7458 39.861C18.1308 39.814 18.4011 39.4899 18.3499 39.137L17.5541 33.6665H19.2169L21.8479 42.7108ZM25.4778 15.1587C27.1773 14.4377 28.6405 14.0451 29.5158 13.8495C29.4092 14.8075 29.1114 16.5442 28.2796 18.6513C27.1756 21.4478 24.8874 25.4584 20.2127 29.0927C19.5361 26.3222 18.4085 23.8173 16.8498 21.6223C19.5527 18.1651 23.0179 16.2021 25.4778 15.1587ZM23.1003 7.11899L25.9335 3.54322C26.767 5.31877 27.8372 8.32503 26.827 9.60008C26.4655 10.0563 25.9319 10.3562 25.3244 10.4445C24.7168 10.5328 24.1082 10.399 23.6104 10.0676C22.5829 9.38352 22.3542 8.06086 23.1003 7.11899Z" fill="#008D4F"/>
</svg>
