<svg width="44" height="44" viewBox="0 0 44 44" fill="none" xmlns="http://www.w3.org/2000/svg">
<path d="M43.3125 24.7149C43.3125 21.7216 41.8612 18.8629 39.4302 17.0686C38.9345 16.7014 38.3199 16.5 37.7004 16.5C36.9249 16.5 36.1982 16.8101 35.6647 17.3374C35.5651 17.2542 35.4743 17.1628 35.3712 17.0837C34.9896 16.7922 34.5317 16.6189 34.0615 16.5474L34.3647 13.2137C34.3716 13.134 34.375 13.0536 34.375 12.9731C34.375 11.506 33.1815 10.3125 31.7144 10.3125H31.5356C30.0685 10.3125 28.875 11.506 28.875 12.9731C28.875 13.0536 28.8784 13.134 28.886 13.2144L29.1906 16.5626C28.7547 16.6451 28.3333 16.8135 27.9771 17.0789C27.8541 17.171 27.7447 17.2769 27.6265 17.3738C27.5653 17.3106 27.5007 17.2514 27.434 17.1944C27.4732 16.9654 27.5 16.7337 27.5 16.5C27.5 15.6269 27.2277 14.7916 26.7231 14.0938C27.2277 13.3959 27.5 12.5613 27.5 11.6875C27.5 9.3335 25.5083 7.42569 23.1351 7.57006C22.6937 6.30506 21.6645 5.3515 20.3995 4.98369C19.5621 3.93937 18.2999 3.35981 16.9476 3.44506C16.3783 1.81363 14.8369 0.6875 13.0625 0.6875C11.5741 0.6875 10.219 1.48362 9.48888 2.75206C7.66838 2.81325 6.09469 4.09819 5.64369 5.84856C3.51519 6.64262 2.0625 8.70306 2.0625 11C2.0625 12.8418 2.96863 14.5255 4.46806 15.543C4.24188 16.0593 4.125 16.6176 4.125 17.1875C4.125 18.425 4.675 19.5752 5.61894 20.3541C5.53988 20.6731 5.5 20.9942 5.5 21.3125C5.5 23.419 7.08812 25.1625 9.13 25.4079L10.6508 29.667C9.87181 30.2411 9.20837 30.9595 8.69756 31.7845L5.09575 30.9843C4.95894 30.9526 4.818 30.9375 4.67637 30.9375C3.61419 30.9375 2.75 31.8017 2.75 32.8639V33.1361C2.75 33.3286 2.78713 33.5115 2.84006 33.6875H2.75C1.61287 33.6875 0.6875 34.6129 0.6875 35.75C0.6875 36.8871 1.61287 37.8125 2.75 37.8125H2.84006C2.78713 37.9885 2.75 38.1714 2.75 38.3639V38.6361C2.75 39.6983 3.61419 40.5625 4.67637 40.5625C4.818 40.5625 4.95894 40.5474 5.09437 40.5164L8.69756 39.7155C10.032 41.8701 12.4101 43.3125 15.125 43.3125H15.2866C15.6688 43.3125 16.0559 43.2829 16.4361 43.2245L40.0111 39.5979C41.9238 39.303 43.3125 37.6853 43.3125 35.75C43.3125 34.2024 42.4167 32.8708 41.0829 32.2431C42.5074 30.5415 43.3125 28.3827 43.3125 26.1601V24.7149ZM34.5352 18.1761C36.5874 19.745 37.8125 22.2441 37.8125 24.8628V27.3879C37.8125 28.7973 37.4612 30.1771 36.7991 31.4084L31.2861 30.5601C31.0592 29.5625 30.9375 28.5436 30.9375 27.5206V24.7294C30.9375 24.0364 31.0069 23.3441 31.1121 22.6579C31.2806 22.6724 31.4483 22.6875 31.625 22.6875C33.5851 22.6875 35.0625 21.8006 35.0625 20.625C35.0625 19.976 34.6136 19.3999 33.836 19.0217L33.9371 17.9094C34.1516 17.9527 34.3578 18.0393 34.5352 18.1761ZM31.5356 11.6875H31.7151C32.4239 11.6875 33.0007 12.2643 33.0007 12.9731C33.0007 13.0123 32.9993 13.0515 32.9952 13.09L32.3709 19.9561L32.8955 20.1245C33.4977 20.317 33.6875 20.5707 33.6875 20.625C33.6875 20.7962 32.956 21.3125 31.625 21.3125C30.294 21.3125 29.5625 20.7962 29.5625 20.625C29.5625 20.5707 29.7523 20.317 30.3545 20.1238L30.8791 19.9554L30.2548 13.09C30.2514 13.0508 30.25 13.0116 30.25 12.9731C30.25 12.2643 30.8268 11.6875 31.5356 11.6875ZM29.315 17.9321L29.414 19.0217C28.6364 19.3999 28.1875 19.976 28.1875 20.625C28.1875 21.3826 28.8056 22.0158 29.766 22.3733C29.6429 23.1536 29.5625 23.9415 29.5625 24.7294V27.5206C29.5625 28.4653 29.6532 29.4085 29.8293 30.3359L25.7764 29.7124C25.5557 28.9568 25.4375 28.1779 25.4375 27.3872V24.8621C25.4375 22.2475 26.6943 19.7491 28.7994 18.1803C28.9527 18.0661 29.1294 17.9823 29.315 17.9321ZM21.8852 29.1136C21.5119 28.1689 21.3125 27.1796 21.3125 26.1601V24.7143C21.3125 22.1554 22.5555 19.7106 24.6366 18.1734C24.8978 17.9809 25.2223 17.875 25.5496 17.875C25.9648 17.875 26.3471 18.0421 26.6269 18.3219C25.0057 20.0984 24.0625 22.4318 24.0625 24.8628V27.3879C24.0625 28.0968 24.1471 28.798 24.3004 29.4855L21.8852 29.1136ZM21.9498 8.45694L22.0749 9.16438L22.7762 9.00831C22.9893 8.96087 23.1852 8.9375 23.375 8.9375C24.8916 8.9375 26.125 10.1709 26.125 11.6875C26.125 12.4101 25.8445 13.0934 25.3358 13.6118L24.8628 14.0938L25.3358 14.5757C25.8445 15.0941 26.125 15.7774 26.125 16.5C26.125 16.5206 26.1209 16.5412 26.1209 16.5626C25.9346 16.5254 25.7448 16.5 25.5496 16.5C24.9301 16.5 24.3155 16.7014 23.8198 17.0679C22.5686 17.9912 21.5834 19.1991 20.9151 20.5597C20.6546 19.7484 20.3809 18.9716 20.0991 18.2339C20.735 14.8747 23.0938 12.9305 23.1179 12.9106L22.6875 12.375L22.2578 11.8381C22.1623 11.9144 20.3026 13.4331 19.2582 16.1728C17.8276 12.8879 16.4773 10.7628 16.3907 10.6281L15.2336 11.3719C15.2522 11.4001 16.3006 13.0494 17.5209 15.675C15.4646 14.9009 13.1278 15.1147 12.9937 15.1284L13.1306 16.4966C14.1646 16.3928 17.0933 16.4429 18.4614 17.8393C18.9434 19.0238 19.4184 20.3225 19.8378 21.714C17.7478 20.6422 15.2542 20.625 15.125 20.625V22C15.1573 22 18.2181 22.0206 20.0296 23.4609C19.9733 23.8748 19.9375 24.2928 19.9375 24.7149V26.1607C19.9375 27.0896 20.0805 27.9978 20.3459 28.8778L16.4361 28.2762C16.2298 28.2446 16.0215 28.2232 15.8125 28.2081C14.2959 28.2081 13.0625 26.9651 13.0625 25.4382C13.0625 25.1178 13.1264 24.7892 13.2516 24.4599L13.4523 23.9339L12.9759 23.6328C12.1694 23.1227 11.6875 22.2558 11.6875 21.3125C11.6875 20.7714 11.8463 20.2469 12.1467 19.7945L12.5751 19.151L11.8862 18.8011C10.4913 18.0916 9.625 16.6836 9.625 15.125C9.625 13.2956 10.8543 11.6662 12.6149 11.1623L13.0419 11.0399L13.1058 10.6006C13.3018 9.26062 14.4657 8.25 15.8125 8.25C15.8379 8.25 15.8627 8.2555 15.8874 8.25894C15.9356 8.26581 15.9844 8.272 16.0332 8.27544L16.5261 8.31531L16.72 7.86019C17.1538 6.84406 18.1466 6.1875 19.25 6.1875C20.5824 6.1875 21.7174 7.14175 21.9498 8.45694ZM10.1097 24.0625H9.625C8.10838 24.0625 6.875 22.8291 6.875 21.3125C6.875 20.9914 6.93894 20.6628 7.06406 20.3349L7.2655 19.8089L6.78906 19.5078C5.98194 18.9977 5.5 18.1308 5.5 17.1875C5.5 16.6464 5.65881 16.1219 5.95925 15.6695L6.38756 15.026L5.69869 14.6761C4.30375 13.9666 3.4375 12.5586 3.4375 11C3.4375 9.17056 4.66675 7.54119 6.42675 7.03725L6.85369 6.91487L6.91763 6.47556C7.11425 5.13562 8.27819 4.125 9.625 4.125C9.65112 4.125 9.67656 4.1305 9.702 4.13394C9.74875 4.14013 9.7955 4.14631 9.84363 4.15044L10.3386 4.19169L10.5332 3.7345C10.9663 2.71906 11.9591 2.0625 13.0625 2.0625C14.3949 2.0625 15.5299 3.01675 15.7623 4.33194L15.8874 5.03937L16.5887 4.88331C16.8018 4.83588 16.9977 4.8125 17.1875 4.8125C17.5037 4.8125 17.8042 4.88194 18.0916 4.98231C17.0809 5.27794 16.2106 5.94894 15.6764 6.87706C13.8559 6.93825 12.2822 8.22319 11.8312 9.97356C9.70269 10.7676 8.25 12.8281 8.25 15.125C8.25 16.9668 9.15613 18.6505 10.6556 19.668C10.4294 20.1843 10.3125 20.7426 10.3125 21.3125C10.3125 22.55 10.8625 23.7002 11.8064 24.4798C11.7274 24.7988 11.6875 25.1192 11.6875 25.4375C11.6875 26.6454 12.2072 27.731 13.0302 28.4886C12.6218 28.6069 12.2292 28.7602 11.8525 28.9424L10.1097 24.0625ZM4.125 33.1361V32.8639C4.125 32.5187 4.45913 32.2527 4.79669 32.3256L8.0685 33.0529C7.98875 33.2606 7.91725 33.4716 7.85606 33.6875H4.67637C4.3725 33.6875 4.125 33.44 4.125 33.1361ZM2.0625 35.75C2.0625 35.3712 2.37119 35.0625 2.75 35.0625H4.67637H7.59688C7.57694 35.2894 7.5625 35.5176 7.5625 35.75C7.5625 35.9824 7.57694 36.2106 7.59756 36.4375H4.67637H2.75C2.37119 36.4375 2.0625 36.1288 2.0625 35.75ZM4.79531 39.1744C4.46944 39.2446 4.125 38.9806 4.125 38.6361V38.3639C4.125 38.06 4.3725 37.8125 4.67637 37.8125H7.85537C7.91656 38.0284 7.98875 38.2394 8.06781 38.4471L4.79531 39.1744ZM41.9375 35.75C41.9375 37.0019 41.0396 38.0483 39.8028 38.2388L16.2284 41.8653C15.9163 41.9134 15.5994 41.9375 15.2866 41.9375H15.125C11.7136 41.9375 8.9375 39.1614 8.9375 35.75C8.9375 32.3386 11.7136 29.5625 15.125 29.5625H15.2866C15.5994 29.5625 15.9163 29.5866 16.2277 29.634L39.8021 33.2606C41.0396 33.4517 41.9375 34.4981 41.9375 35.75ZM41.9375 26.1601C41.9375 28.2748 41.0816 30.3208 39.5924 31.8374L38.2264 31.6271C38.8541 30.3084 39.1875 28.8626 39.1875 27.3872V24.8621C39.1875 22.4187 38.2566 20.0736 36.6575 18.2944C36.9352 18.0324 37.3038 17.875 37.7004 17.875C38.0284 17.875 38.3522 17.9809 38.6134 18.1748C40.6945 19.7106 41.9375 22.1561 41.9375 24.7149V26.1601Z" fill="#008D4F"/>
<path d="M14.4375 32.3125H15.8125V39.1875H14.4375V32.3125Z" fill="#008D4F"/>
<path d="M19.9375 32.3125H21.3125V39.1875H19.9375V32.3125Z" fill="#008D4F"/>
<path d="M25.4375 32.3125H26.8125V39.1875H25.4375V32.3125Z" fill="#008D4F"/>
<path d="M30.9375 33.6875H32.3125V37.8125H30.9375V33.6875Z" fill="#008D4F"/>
<path d="M36.4375 34.375H37.8125V37.125H36.4375V34.375Z" fill="#008D4F"/>
</svg>
