<svg width="44" height="44" viewBox="0 0 44 44" fill="none" xmlns="http://www.w3.org/2000/svg">
<path d="M43.968 42.9075C43.1299 39.9236 41.3083 37.2343 38.8384 35.335C37.3335 34.1777 35.6537 33.3426 33.8668 32.852C33.942 31.9652 34.6865 31.2662 35.5923 31.2662C36.0669 31.2662 36.4517 30.8815 36.4517 30.4069C36.4517 29.9322 36.0669 29.5475 35.5923 29.5475C34.5601 29.5475 33.633 30.0035 32.9999 30.7239C32.3668 30.0035 31.4397 29.5475 30.4075 29.5475C29.933 29.5475 29.5481 29.9322 29.5481 30.4069C29.5481 30.8815 29.933 31.2662 30.4075 31.2662C31.1819 31.2662 31.8391 31.777 32.0605 32.4792C31.3864 32.3845 30.7012 32.3363 30.0078 32.3363C29.4921 32.3363 28.973 32.3639 28.458 32.4188C27.2587 30.4736 25.2701 29.1878 23.0244 28.8857C23.0301 28.8804 23.0361 28.8756 23.0417 28.8701L26.181 25.7308C26.7436 25.8633 27.7184 26.0383 28.9467 26.0383C29.2116 26.0383 29.4887 26.0301 29.7755 26.0117C31.9602 25.8708 35.1858 25.0817 38.1457 22.1218C41.1055 19.1619 41.8948 15.9363 42.0357 13.7515C42.1888 11.3768 41.6338 9.69684 41.6101 9.62645C41.516 9.34724 41.2871 9.13902 41.0077 9.06794L40.9985 9.06528C40.0845 8.7987 38.9843 8.64513 37.9002 8.63276C37.8968 8.63276 37.8936 8.63276 37.8902 8.63276C37.4201 8.63276 37.0364 9.01105 37.0311 9.48234C37.0257 9.95688 37.4059 10.346 37.8806 10.3515C38.8237 10.3623 39.5848 10.4886 40.0942 10.6057C40.2264 11.1886 40.4148 12.3156 40.3157 13.7126C40.1227 16.4329 38.9837 18.8532 36.9304 20.9065C34.8771 22.9597 32.4567 24.0987 29.7366 24.2916C28.9425 24.348 28.236 24.3113 27.6669 24.245L33.9685 17.9433C34.3041 17.6077 34.3041 17.0636 33.9685 16.7279C33.6329 16.3923 33.0889 16.3923 32.7531 16.7279L26.4516 23.0294C26.218 20.9958 26.3709 17.1852 29.79 13.7662C30.4602 13.0959 31.1809 12.515 31.932 12.0397C32.333 11.7858 32.4523 11.255 32.1985 10.8539C31.9448 10.4529 31.4139 10.3335 31.0127 10.5873C30.1548 11.1304 29.3344 11.7911 28.5746 12.5508C25.6149 15.5107 24.8256 18.7363 24.6848 20.921C24.5807 22.5375 24.8046 23.8314 24.9657 24.5154L22.8593 26.6217V11.0233C22.9584 11.0256 23.0634 11.027 23.1749 11.027C24.8596 11.027 27.8743 10.7222 29.8671 8.76622C32.5458 6.13738 32.1868 1.54702 32.1137 0.841475C32.1022 0.637975 32.0188 0.43774 31.8632 0.282193C31.7102 0.129138 31.5135 0.0459504 31.3132 0.03263C30.9039 -0.00312004 26.2683 -0.339222 23.5312 2.34564C21.0664 4.7647 21.0927 8.7541 21.1612 9.92655C21.148 9.98645 21.1405 10.0485 21.1405 10.1123V13.3962C20.6317 12.5532 19.9816 11.7006 19.1509 10.8698C16.3311 8.0501 13.2579 7.29823 11.1762 7.164C8.91313 7.01807 7.3104 7.54771 7.24319 7.57031C6.96433 7.66424 6.75619 7.89275 6.68494 8.17187L6.68271 8.17961C6.36139 9.28073 5.01122 15.0264 10.0027 20.018C12.8224 22.8377 15.8956 23.5895 17.9772 23.7237C18.2504 23.7413 18.514 23.749 18.7664 23.749C19.7641 23.749 20.5868 23.6278 21.1406 23.5136V28.8658C18.8275 29.1259 16.7705 30.4262 15.5419 32.4189C15.027 32.364 14.5078 32.3363 13.9921 32.3363C13.2988 32.3363 12.6135 32.3846 11.9394 32.4793C12.1609 31.7771 12.8181 31.2663 13.5924 31.2663C14.067 31.2663 14.4518 30.8816 14.4518 30.407C14.4518 29.9323 14.067 29.5476 13.5924 29.5476C12.5602 29.5476 11.6331 30.0036 11 30.724C10.3669 30.0036 9.43985 29.5476 8.40765 29.5476C7.9331 29.5476 7.54827 29.9323 7.54827 30.407C7.54827 30.8816 7.9331 31.2663 8.40765 31.2663C9.31352 31.2663 10.0581 31.9653 10.1332 32.8521C8.34638 33.3427 6.66647 34.1778 5.16153 35.3351C2.69168 37.2344 0.86997 39.9237 0.0319915 42.9076C-0.0407117 43.1665 0.012054 43.4446 0.174476 43.6591C0.336898 43.8735 0.590415 43.9994 0.859399 43.9994H43.1407C43.4097 43.9994 43.6632 43.8735 43.8257 43.6591C43.9882 43.4446 44.0407 43.1665 43.968 42.9075ZM24.7349 3.5724C26.4059 1.93331 29.1432 1.72096 30.4454 1.72062C30.4811 3.05686 30.3384 5.89556 28.6632 7.53963C27.4055 8.77395 25.5139 9.1654 24.0905 9.27084L26.679 6.68232C27.0146 6.34673 27.0146 5.80257 26.679 5.46698C26.3434 5.1314 25.7994 5.1314 25.4636 5.46698L22.9187 8.01203C23.058 6.61537 23.4922 4.79203 24.7349 3.5724ZM21.1404 20.3095C21.1304 20.4655 21.1174 20.614 21.1024 20.7543L16.0869 15.7387C15.7513 15.4032 15.2071 15.4031 14.8715 15.7387C14.5359 16.0743 14.5359 16.6184 14.8715 16.9541L19.8873 21.9699C17.9454 22.1758 14.4028 21.9873 11.218 18.8025C7.3678 14.9524 7.87698 10.6299 8.22374 9.08694C8.78182 8.96241 9.83568 8.79097 11.1369 8.88404C13.7073 9.06734 15.9947 10.1444 17.9354 12.0851C19.8761 14.0259 20.9531 16.3132 21.1363 18.8834C21.138 18.9067 21.1389 18.9293 21.1404 18.9524V20.3095ZM6.80869 42.2805C7.60026 40.5106 9.01987 39.09 10.8289 38.2951C11.2634 38.1041 11.4608 37.5971 11.2699 37.1626C11.0788 36.7281 10.5717 36.5306 10.1373 36.7217C7.69935 37.793 5.84172 39.798 4.95863 42.2805H2.04732C3.91586 37.3847 8.6738 34.055 13.992 34.055C14.6215 34.055 15.2569 34.1018 15.8805 34.1941C16.2449 34.2479 16.6032 34.0638 16.7712 33.7358C17.7824 31.7619 19.7859 30.5355 21.9999 30.5355C24.2139 30.5355 26.2174 31.7619 27.2286 33.7358C27.3967 34.0638 27.7554 34.248 28.1193 34.1941C28.7429 34.1018 29.3782 34.055 30.0078 34.055C35.326 34.055 40.0839 37.3847 41.9525 42.2805H6.80869Z" fill="#008D4F"/>
</svg>
