<svg width="32" height="32" viewBox="0 0 32 32" fill="none" xmlns="http://www.w3.org/2000/svg">
<g clip-path="url(#clip0)">
<path d="M28.888 2.03821H3.11203C1.39603 2.03821 0 3.43423 0 5.15018V26.85C0 28.566 1.39603 29.962 3.11203 29.962H28.888C30.604 29.962 32 28.566 32 26.85V5.15018C32 3.43423 30.604 2.03821 28.888 2.03821ZM3.11203 3.91383H28.888C29.5697 3.91383 30.1244 4.46845 30.1244 5.15018V9.43379H1.87562V5.15018C1.87562 4.46845 2.43031 3.91383 3.11203 3.91383ZM28.888 28.0864H3.11203C2.43031 28.0864 1.87562 27.5317 1.87562 26.85V11.3094H30.1244V26.85C30.1244 27.5317 29.5697 28.0864 28.888 28.0864Z" fill="#008D4F"/>
<path d="M24.5455 16.3073V15.4348C24.5455 14.4353 23.7352 13.6251 22.7358 13.6251H9.80966C8.81021 13.6251 8 14.4353 8 15.4348V16.3073C8 16.3965 8.07235 16.4689 8.16158 16.4689H24.3839C24.4731 16.4689 24.5455 16.3965 24.5455 16.3073Z" fill="#008D4F"/>
<path d="M8 17.6646V23.1906C8 24.19 8.81021 25.0002 9.80966 25.0002H22.7358C23.7352 25.0002 24.5455 24.19 24.5455 23.1906V17.6646C24.5455 17.5754 24.4731 17.5031 24.3839 17.5031H8.16158C8.07235 17.5031 8 17.5754 8 17.6646ZM12.1364 21.8979C12.1364 22.1835 11.9049 22.415 11.6193 22.415H11.1023C10.8167 22.415 10.5852 22.1835 10.5852 21.8979V21.3809C10.5852 21.0954 10.8167 20.8638 11.1023 20.8638H11.6193C11.9049 20.8638 12.1364 21.0954 12.1364 21.3809V21.8979Z" fill="#008D4F"/>
<path d="M4.70865 7.67359C5.23001 7.67359 5.65265 7.25094 5.65265 6.72959C5.65265 6.20823 5.23001 5.78558 4.70865 5.78558C4.18729 5.78558 3.76465 6.20823 3.76465 6.72959C3.76465 7.25094 4.18729 7.67359 4.70865 7.67359Z" fill="#008D4F"/>
<path d="M8.54654 7.67359C9.0679 7.67359 9.49054 7.25094 9.49054 6.72959C9.49054 6.20823 9.0679 5.78558 8.54654 5.78558C8.02518 5.78558 7.60254 6.20823 7.60254 6.72959C7.60254 7.25094 8.02518 7.67359 8.54654 7.67359Z" fill="#008D4F"/>
<path d="M12.5592 7.67359C13.0806 7.67359 13.5032 7.25094 13.5032 6.72959C13.5032 6.20823 13.0806 5.78558 12.5592 5.78558C12.0379 5.78558 11.6152 6.20823 11.6152 6.72959C11.6152 7.25094 12.0379 7.67359 12.5592 7.67359Z" fill="#008D4F"/>
</g>
<defs>
<clipPath id="clip0">
<rect width="32" height="32" fill="white"/>
</clipPath>
</defs>
</svg>
