<svg width="24" height="24" viewBox="0 0 24 24" fill="none" xmlns="http://www.w3.org/2000/svg">
<path d="M12 1C9.82441 1 7.69767 1.64514 5.88873 2.85383C4.07979 4.06253 2.66989 5.78049 1.83733 7.79048C1.00477 9.80047 0.786929 12.0122 1.21137 14.146C1.6358 16.2798 2.68345 18.2398 4.22183 19.7782C5.76021 21.3165 7.72022 22.3642 9.85401 22.7886C11.9878 23.2131 14.1995 22.9952 16.2095 22.1627C18.2195 21.3301 19.9375 19.9202 21.1462 18.1113C22.3549 16.3023 23 14.1756 23 12C23 9.08262 21.8411 6.28473 19.7782 4.22183C17.7153 2.15893 14.9174 1 12 1ZM12 21.1667C10.187 21.1667 8.41473 20.629 6.90728 19.6218C5.39983 18.6146 4.22491 17.1829 3.53111 15.5079C2.83731 13.8329 2.65578 11.9898 3.00947 10.2117C3.36317 8.43351 4.23621 6.80017 5.51819 5.51819C6.80017 4.23621 8.43352 3.36317 10.2117 3.00947C11.9898 2.65577 13.8329 2.8373 15.5079 3.5311C17.1829 4.22491 18.6146 5.39982 19.6218 6.90727C20.6291 8.41472 21.1667 10.187 21.1667 12C21.1667 13.2038 20.9296 14.3958 20.4689 15.5079C20.0082 16.6201 19.333 17.6306 18.4818 18.4818C17.6306 19.333 16.6201 20.0082 15.5079 20.4689C14.3958 20.9296 13.2038 21.1667 12 21.1667Z" fill="#008D4F"/>
<path d="M11.142 15.8564C11.0637 15.9355 10.9359 15.9355 10.8577 15.8564L6.97668 11.9351C6.84486 11.7796 6.77598 11.5796 6.7838 11.375C6.79163 11.1704 6.87557 10.9763 7.01887 10.8315C7.16217 10.6867 7.35427 10.6019 7.55678 10.594C7.75928 10.5861 7.95728 10.6557 8.11121 10.7889L10.8577 13.5638C10.9359 13.6429 11.0637 13.6429 11.142 13.5638L16.4552 8.19548C16.6091 8.0623 16.8071 7.9927 17.0096 8.00061C17.2121 8.00851 17.4042 8.09333 17.5475 8.23811C17.6908 8.3829 17.7748 8.57699 17.7826 8.78159C17.7904 8.9862 17.7215 9.18625 17.5897 9.34177L11.142 15.8564Z" fill="#008D4F"/>
</svg>
