<svg width="34" height="34" viewBox="0 0 34 34" fill="none" xmlns="http://www.w3.org/2000/svg">
<g clip-path="url(#clip0)">
<path d="M33.8014 12.3511L32.0182 9.97363L31.0268 16.9139C30.936 17.5497 30.6358 18.15 30.1815 18.6042L17.9729 30.8128C16.908 31.8779 15.4905 32.4644 13.9816 32.4644C13.5306 32.4644 13.0882 32.4109 12.6605 32.309C13.31 33.3244 14.4467 33.9995 15.7389 33.9995H30.3482C32.3621 33.9995 34.0006 32.3611 34.0006 30.3472V12.9488C34.0006 12.7333 33.9306 12.5236 33.8014 12.3511Z" fill="#008D4F"/>
<path d="M20.5546 16.5483C21.1048 16.5483 21.5507 16.1024 21.5507 15.5522C21.5507 15.0021 21.1048 14.5562 20.5546 14.5562C20.0045 14.5562 19.5585 15.0021 19.5585 15.5522C19.5585 16.1024 20.0045 16.5483 20.5546 16.5483Z" fill="#008D4F"/>
<path d="M9.28509 16.5483C9.83521 16.5483 10.2812 16.1024 10.2812 15.5522C10.2812 15.0021 9.83521 14.5562 9.28509 14.5562C8.73497 14.5562 8.289 15.0021 8.289 15.5522C8.289 16.1024 8.73497 16.5483 9.28509 16.5483Z" fill="#008D4F"/>
<path d="M16.5639 29.4041L28.7725 17.1955C28.9249 17.0431 29.0238 16.8454 29.0543 16.632L30.463 6.77116C30.5073 6.46078 30.403 6.14761 30.1813 5.92594L28.0682 3.81289L25.2509 6.63031L25.9552 7.33468C26.3442 7.72362 26.3442 8.35435 25.9552 8.74336C25.7607 8.93786 25.5058 9.03515 25.2509 9.03515C24.9961 9.03515 24.7411 8.93786 24.5466 8.74336L21.7292 5.92594C21.3402 5.537 21.3402 4.90627 21.7292 4.51727C22.1182 4.12832 22.7489 4.12832 23.1379 4.51727L23.8423 5.22164L26.6596 2.40422L24.5466 0.291171C24.3249 0.0694409 24.0117 -0.0345513 23.7013 0.00940962L13.8404 1.41815C13.6271 1.44863 13.4294 1.54751 13.277 1.69991L1.06831 13.9086C-0.355776 15.3326 -0.355776 17.6498 1.06831 19.0738L11.3987 29.4041C12.1107 30.1162 13.046 30.4721 13.9813 30.4721C14.9165 30.4721 15.8519 30.1162 16.5639 29.4041ZM20.5552 12.5638C22.2029 12.5638 23.5434 13.9043 23.5434 15.5521C23.5434 17.1998 22.2029 18.5403 20.5552 18.5403C18.9074 18.5403 17.5669 17.1998 17.5669 15.5521C17.5669 13.9043 18.9074 12.5638 20.5552 12.5638ZM9.28561 18.5403C7.63788 18.5403 6.29733 17.1998 6.29733 15.5521C6.29733 13.9043 7.63788 12.5638 9.28561 12.5638C10.9334 12.5638 12.2739 13.9043 12.2739 15.5521C12.2739 17.1998 10.9334 18.5403 9.28561 18.5403ZM12.5727 23.5919C12.4683 23.5919 12.3621 23.5753 12.2576 23.5405C11.7357 23.3665 11.4537 22.8025 11.6276 22.2805L16.3232 8.19358C16.4972 7.67169 17.0613 7.38967 17.5832 7.56359C18.1051 7.73757 18.3871 8.30162 18.2132 8.82358L13.5176 22.9105C13.3784 23.3278 12.9898 23.5919 12.5727 23.5919Z" fill="#008D4F"/>
<path d="M30.1809 1.69989C30.5699 1.31095 30.5699 0.680226 30.1809 0.291218C29.792 -0.0977236 29.1612 -0.0977236 28.7722 0.291218L26.6592 2.40426L28.0679 3.81294L30.1809 1.69989Z" fill="#008D4F"/>
</g>
<defs>
<clipPath id="clip0">
<rect width="34" height="34" fill="white"/>
</clipPath>
</defs>
</svg>
