<svg width="20" height="20" viewBox="0 0 20 20" fill="none" xmlns="http://www.w3.org/2000/svg">
<path d="M16.6667 6.66671H14.1667V3.33337H2.50003C1.58336 3.33337 0.833359 4.08337 0.833359 5.00004V14.1667H2.50003C2.50003 15.55 3.61669 16.6667 5.00003 16.6667C6.38336 16.6667 7.50003 15.55 7.50003 14.1667H12.5C12.5 15.55 13.6167 16.6667 15 16.6667C16.3834 16.6667 17.5 15.55 17.5 14.1667H19.1667V10L16.6667 6.66671ZM5.00003 15.4167C4.30836 15.4167 3.75003 14.8584 3.75003 14.1667C3.75003 13.475 4.30836 12.9167 5.00003 12.9167C5.69169 12.9167 6.25003 13.475 6.25003 14.1667C6.25003 14.8584 5.69169 15.4167 5.00003 15.4167ZM16.25 7.91671L17.8834 10H14.1667V7.91671H16.25ZM15 15.4167C14.3084 15.4167 13.75 14.8584 13.75 14.1667C13.75 13.475 14.3084 12.9167 15 12.9167C15.6917 12.9167 16.25 13.475 16.25 14.1667C16.25 14.8584 15.6917 15.4167 15 15.4167Z" fill="#008D4F"/>
</svg>
