<svg width="14" height="10" viewBox="0 0 14 10" fill="none" xmlns="http://www.w3.org/2000/svg">
<path d="M5.64603 9.84394C5.567 9.9284 5.433 9.9284 5.35397 9.84394L0.74538 4.91894C0.589594 4.72453 0.508188 4.47447 0.517432 4.21871C0.526676 3.96295 0.625889 3.72034 0.795243 3.53936C0.964598 3.35838 1.19162 3.25236 1.43095 3.24248C1.67027 3.2326 1.90427 3.31959 2.08618 3.48608L5.35397 6.97822C5.433 7.06268 5.567 7.06268 5.64603 6.97822L11.9473 0.244356C12.1292 0.0778736 12.3632 -0.00912089 12.6025 0.000757869C12.8418 0.0106366 13.0689 0.116661 13.2382 0.297643C13.4076 0.478625 13.5068 0.721235 13.516 0.976991C13.5253 1.23275 13.4439 1.48281 13.2881 1.67722L5.64603 9.84394Z" fill="white"/>
</svg>
