<svg width="44" height="44" viewBox="0 0 44 44" fill="none" xmlns="http://www.w3.org/2000/svg">
<path d="M3.95313 26.125H4.8125V35.75C4.8125 36.4794 5.10223 37.1788 5.61796 37.6946C6.13368 38.2103 6.83316 38.5 7.5625 38.5C8.29185 38.5 8.99132 38.2103 9.50704 37.6946C10.0228 37.1788 10.3125 36.4794 10.3125 35.75V26.125H11.1719C11.8554 26.1242 12.5107 25.8524 12.994 25.369C13.4774 24.8857 13.7492 24.2304 13.75 23.5469V20.12C13.7518 15.405 12.0214 10.8537 8.88766 7.33091L8.07632 6.41825C8.01182 6.3457 7.93269 6.28763 7.84412 6.24786C7.75556 6.20809 7.65958 6.18753 7.5625 6.18753C7.46542 6.18753 7.36944 6.20809 7.28088 6.24786C7.19232 6.28763 7.11318 6.3457 7.04868 6.41825L6.23735 7.331C3.1036 10.8538 1.37322 15.405 1.375 20.12V23.5469C1.37577 24.2304 1.64765 24.8857 2.13097 25.369C2.6143 25.8524 3.2696 26.1242 3.95313 26.125ZM8.9375 27.5H6.1875V26.125H8.9375V27.5ZM6.1875 24.75C6.1913 23.0044 6.66635 21.2921 7.5625 19.7941C8.45865 21.2921 8.93371 23.0044 8.9375 24.75H6.1875ZM8.9375 35.75C8.9375 36.1147 8.79264 36.4644 8.53477 36.7223C8.27691 36.9801 7.92717 37.125 7.5625 37.125C7.19783 37.125 6.84809 36.9801 6.59023 36.7223C6.33237 36.4644 6.1875 36.1147 6.1875 35.75V28.875H8.9375V35.75ZM2.75 20.12C2.74832 15.7418 4.35513 11.5156 7.26507 8.24451L7.5625 7.90979L7.85993 8.24443C10.7699 11.5156 12.3767 15.7418 12.375 20.12V23.5469C12.3747 23.8659 12.2478 24.1717 12.0222 24.3972C11.7967 24.6228 11.4909 24.7497 11.1719 24.75H10.3125C10.3076 22.3707 9.53612 20.0564 8.1125 18.15C8.04846 18.0646 7.96542 17.9953 7.86996 17.9476C7.7745 17.8999 7.66923 17.875 7.5625 17.875C7.45577 17.875 7.35051 17.8999 7.25504 17.9476C7.15958 17.9953 7.07654 18.0646 7.0125 18.15C5.58888 20.0564 4.81743 22.3707 4.8125 24.75H3.95313C3.63414 24.7497 3.32832 24.6228 3.10277 24.3972C2.87721 24.1717 2.75034 23.8659 2.75 23.5469V20.12Z" fill="#008D4F"/>
<path d="M28.1627 21.0948C28.8077 20.6331 29.3335 20.0244 29.6965 19.3191C30.0595 18.6137 30.2492 17.8321 30.25 17.0389V12.9445C30.2519 12.2375 30.1136 11.5371 29.843 10.8838C29.5724 10.2306 29.175 9.63749 28.6737 9.13888C28.6098 9.07503 28.534 9.02439 28.4506 8.98984C28.3672 8.95528 28.2778 8.9375 28.1875 8.9375C28.0972 8.9375 28.0078 8.95528 27.9244 8.98984C27.841 9.02439 27.7652 9.07503 27.7014 9.13888C27.2 9.63749 26.8026 10.2306 26.532 10.8838C26.2614 11.5371 26.1231 12.2375 26.125 12.9445V17.5071L25.4375 17.9654V12.9445C25.4394 12.2375 25.3011 11.5371 25.0305 10.8838C24.7599 10.2306 24.3625 9.63749 23.8612 9.13888C23.7973 9.07503 23.7215 9.02439 23.6381 8.98984C23.5547 8.95528 23.4653 8.9375 23.375 8.9375C23.2847 8.9375 23.1953 8.95528 23.1119 8.98984C23.0285 9.02439 22.9527 9.07503 22.8889 9.13888C22.3875 9.63749 21.9901 10.2306 21.7195 10.8838C21.4489 11.5371 21.3106 12.2375 21.3125 12.9445V17.9654L20.625 17.5071V12.9445C20.6269 12.2375 20.4886 11.5371 20.218 10.8838C19.9474 10.2306 19.55 9.63749 19.0487 9.13888C18.9848 9.07503 18.909 9.02439 18.8256 8.98984C18.7422 8.95528 18.6528 8.9375 18.5625 8.9375C18.4722 8.9375 18.3828 8.95528 18.2994 8.98984C18.216 9.02439 18.1402 9.07503 18.0764 9.13888C17.575 9.63749 17.1776 10.2306 16.907 10.8838C16.6364 11.5371 16.4981 12.2375 16.5 12.9445V17.0389C16.5008 17.8322 16.6905 18.6139 17.0535 19.3192C17.4165 20.0246 17.9423 20.6334 18.5874 21.0951L21.3125 23.0412V24.75C21.1302 24.75 20.9553 24.8225 20.8264 24.9514C20.6975 25.0803 20.625 25.2552 20.625 25.4375V35.75C20.625 36.4794 20.9148 37.1789 21.4305 37.6946C21.9462 38.2103 22.6457 38.5 23.375 38.5C24.1044 38.5 24.8038 38.2103 25.3196 37.6946C25.8353 37.1789 26.125 36.4794 26.125 35.75V25.4375C26.125 25.2552 26.0526 25.0803 25.9237 24.9514C25.7947 24.8225 25.6199 24.75 25.4375 24.75V23.0412L28.1627 21.0948ZM17.875 17.0389V12.9445C17.8729 12.1436 18.1125 11.3607 18.5625 10.6981C19.0126 11.3607 19.2522 12.1436 19.25 12.9445V17.875C19.25 17.9882 19.278 18.0996 19.3314 18.1994C19.3848 18.2992 19.462 18.3842 19.5561 18.447L21.6186 19.822C21.7222 19.8911 21.8425 19.9307 21.9668 19.9367C22.0911 19.9427 22.2147 19.9149 22.3244 19.8562C22.4341 19.7975 22.5258 19.7101 22.5898 19.6033C22.6537 19.4966 22.6875 19.3745 22.6875 19.25V12.9445C22.6854 12.1436 22.925 11.3607 23.375 10.6981C23.8251 11.3607 24.0647 12.1436 24.0625 12.9445V19.25C24.0625 19.3745 24.0963 19.4966 24.1602 19.6033C24.2242 19.7101 24.3159 19.7975 24.4256 19.8562C24.5354 19.9149 24.659 19.9427 24.7832 19.9367C24.9075 19.9307 25.0279 19.8911 25.1314 19.822L27.1939 18.447C27.2881 18.3842 27.3653 18.2992 27.4187 18.1994C27.4721 18.0996 27.5 17.9882 27.5 17.875V12.9445C27.4979 12.1436 27.7375 11.3607 28.1875 10.6981C28.6376 11.3607 28.8772 12.1436 28.875 12.9445V17.0389C28.8744 17.6133 28.737 18.1793 28.4742 18.69C28.2113 19.2008 27.8306 19.6415 27.3635 19.9759L24.5298 22H22.2203L19.3865 19.9759C18.9194 19.6415 18.5387 19.2007 18.2758 18.69C18.013 18.1793 17.8756 17.6133 17.875 17.0389ZM24.75 27.5H22V26.125H24.75V27.5ZM24.75 35.75C24.75 36.1147 24.6052 36.4644 24.3473 36.7223C24.0894 36.9802 23.7397 37.125 23.375 37.125C23.0103 37.125 22.6606 36.9802 22.4027 36.7223C22.1449 36.4644 22 36.1147 22 35.75V28.875H24.75V35.75ZM22.6875 24.75V23.375H24.0625V24.75H22.6875Z" fill="#008D4F"/>
<path d="M38.3845 5.11862C38.3217 5.02446 38.2367 4.94726 38.1369 4.89386C38.0371 4.84047 37.9257 4.81253 37.8125 4.81253C37.6993 4.81253 37.5879 4.84047 37.4881 4.89386C37.3883 4.94726 37.3033 5.02446 37.2405 5.11862L34.9918 8.49167C33.691 10.4388 32.9978 12.7284 33 15.07V17.0699C32.9996 17.4532 33.1276 17.8257 33.3636 18.1279C33.5995 18.43 33.9298 18.6445 34.3019 18.7371L35.75 19.0993V20.625C35.5677 20.625 35.3928 20.6974 35.2639 20.8264C35.1349 20.9553 35.0625 21.1302 35.0625 21.3125V35.75C35.0625 36.4794 35.3522 37.1788 35.868 37.6946C36.3837 38.2103 37.0832 38.5 37.8125 38.5C38.5418 38.5 39.2413 38.2103 39.757 37.6946C40.2728 37.1788 40.5625 36.4794 40.5625 35.75V21.3125C40.5625 21.1302 40.4901 20.9553 40.3611 20.8264C40.2322 20.6974 40.0573 20.625 39.875 20.625V19.0993L41.3232 18.7372C41.6953 18.6446 42.0256 18.4301 42.2615 18.1279C42.4975 17.8257 42.6254 17.4533 42.625 17.0699V15.07C42.6272 12.7284 41.934 10.4388 40.6332 8.49167L38.3845 5.11862ZM38.5 17.875H37.125V17.6039C37.124 16.5203 37.3586 15.4495 37.8125 14.4655C38.2664 15.4495 38.501 16.5203 38.5 17.6039V17.875ZM39.1875 23.375H36.4375V22H39.1875V23.375ZM39.1875 35.75C39.1875 36.1147 39.0426 36.4644 38.7848 36.7223C38.5269 36.9801 38.1772 37.125 37.8125 37.125C37.4478 37.125 37.0981 36.9801 36.8402 36.7223C36.5824 36.4644 36.4375 36.1147 36.4375 35.75V24.75H39.1875V35.75ZM37.125 20.625V19.25H38.5V20.625H37.125ZM41.25 17.0699C41.25 17.1465 41.2244 17.221 41.1772 17.2814C41.13 17.3419 41.064 17.3848 40.9896 17.4034L39.875 17.682V17.6039C39.8767 15.8516 39.3579 14.1382 38.3845 12.6811C38.3217 12.587 38.2367 12.5098 38.1369 12.4564C38.0371 12.403 37.9257 12.375 37.8125 12.375C37.6993 12.375 37.5879 12.403 37.4881 12.4564C37.3883 12.5098 37.3033 12.587 37.2405 12.6811C36.2671 14.1382 35.7483 15.8516 35.75 17.6039V17.682L34.6355 17.4034C34.5611 17.3848 34.495 17.3419 34.4478 17.2815C34.4006 17.221 34.375 17.1465 34.375 17.0699V15.07C34.373 12.9999 34.9858 10.9758 36.1358 9.25445L37.8125 6.7394L39.4892 9.25445C40.6392 10.9758 41.252 12.9999 41.25 15.07V17.0699Z" fill="#008D4F"/>
</svg>
