<svg width="22" height="22" viewBox="0 0 22 22" fill="none" xmlns="http://www.w3.org/2000/svg">
<path d="M9.16659 16.4999C10.7936 16.4996 12.3738 15.9549 13.6555 14.9526L17.6852 18.9823L18.9813 17.6861L14.9517 13.6564C15.9545 12.3746 16.4995 10.7941 16.4999 9.16658C16.4999 5.12317 13.21 1.83325 9.16659 1.83325C5.12317 1.83325 1.83325 5.12317 1.83325 9.16658C1.83325 13.21 5.12317 16.4999 9.16659 16.4999ZM9.16659 3.66659C12.1998 3.66659 14.6666 6.13333 14.6666 9.16658C14.6666 12.1998 12.1998 14.6666 9.16659 14.6666C6.13334 14.6666 3.66659 12.1998 3.66659 9.16658C3.66659 6.13333 6.13334 3.66659 9.16659 3.66659Z" fill="#008D4F"/>
</svg>
