<svg width="28" height="28" viewBox="0 0 28 28" fill="none" xmlns="http://www.w3.org/2000/svg">
<path fill-rule="evenodd" clip-rule="evenodd" d="M22.6918 7.63637C22.8325 7.23829 22.909 6.8099 22.909 6.36364C22.909 6.01104 22.8613 5.66961 22.7718 5.34546H24.309C24.9417 5.34546 25.4545 5.8583 25.4545 6.49091C25.4545 7.12353 24.9417 7.63637 24.309 7.63637H22.6918ZM15.4899 7.63637H3.69086C3.05825 7.63637 2.54541 7.12353 2.54541 6.49091C2.54541 5.8583 3.05825 5.34546 3.69086 5.34546H15.4099C15.3205 5.66961 15.2727 6.01104 15.2727 6.36364C15.2727 6.8099 15.3492 7.23829 15.4899 7.63637Z" fill="#008D4F"/>
<path fill-rule="evenodd" clip-rule="evenodd" d="M12.5099 15.2728C12.6507 14.8747 12.7272 14.4463 12.7272 14C12.7272 13.6474 12.6794 13.306 12.59 12.9819H24.309C24.9417 12.9819 25.4545 13.4948 25.4545 14.1274C25.4545 14.76 24.9417 15.2728 24.309 15.2728H12.5099ZM5.30817 15.2728H3.69086C3.05825 15.2728 2.54541 14.76 2.54541 14.1274C2.54541 13.4948 3.05825 12.9819 3.69086 12.9819H5.22809C5.13865 13.306 5.09086 13.6474 5.09086 14C5.09086 14.4463 5.16744 14.8747 5.30817 15.2728Z" fill="#008D4F"/>
<path fill-rule="evenodd" clip-rule="evenodd" d="M20.1463 22.9093C20.287 22.5112 20.3636 22.0828 20.3636 21.6365C20.3636 21.2839 20.3158 20.9425 20.2264 20.6184H24.309C24.9417 20.6184 25.4545 21.1312 25.4545 21.7639C25.4545 22.3965 24.9417 22.9093 24.309 22.9093H20.1463ZM12.9445 22.9093H3.69086C3.05825 22.9093 2.54541 22.3965 2.54541 21.7639C2.54541 21.1312 3.05825 20.6184 3.69086 20.6184H12.8645C12.775 20.9425 12.7272 21.2839 12.7272 21.6365C12.7272 22.0828 12.8038 22.5112 12.9445 22.9093Z" fill="#008D4F"/>
<path fill-rule="evenodd" clip-rule="evenodd" d="M19.0909 7.89086C19.9344 7.89086 20.6182 7.20708 20.6182 6.36359C20.6182 5.5201 19.9344 4.83632 19.0909 4.83632C18.2474 4.83632 17.5636 5.5201 17.5636 6.36359C17.5636 7.20708 18.2474 7.89086 19.0909 7.89086ZM19.0909 10.1818C21.1996 10.1818 22.9091 8.47232 22.9091 6.36359C22.9091 4.25487 21.1996 2.54541 19.0909 2.54541C16.9822 2.54541 15.2727 4.25487 15.2727 6.36359C15.2727 8.47232 16.9822 10.1818 19.0909 10.1818Z" fill="#008D4F"/>
<path fill-rule="evenodd" clip-rule="evenodd" d="M8.90912 15.5273C9.75261 15.5273 10.4364 14.8436 10.4364 14.0001C10.4364 13.1566 9.75261 12.4728 8.90912 12.4728C8.06563 12.4728 7.38185 13.1566 7.38185 14.0001C7.38185 14.8436 8.06563 15.5273 8.90912 15.5273ZM8.90912 17.8182C11.0178 17.8182 12.7273 16.1088 12.7273 14.0001C12.7273 11.8913 11.0178 10.1819 8.90912 10.1819C6.8004 10.1819 5.09094 11.8913 5.09094 14.0001C5.09094 16.1088 6.8004 17.8182 8.90912 17.8182Z" fill="#008D4F"/>
<path fill-rule="evenodd" clip-rule="evenodd" d="M16.5455 23.1636C17.389 23.1636 18.0727 22.4798 18.0727 21.6363C18.0727 20.7928 17.389 20.109 16.5455 20.109C15.702 20.109 15.0182 20.7928 15.0182 21.6363C15.0182 22.4798 15.702 23.1636 16.5455 23.1636ZM16.5455 25.4545C18.6542 25.4545 20.3637 23.745 20.3637 21.6363C20.3637 19.5276 18.6542 17.8181 16.5455 17.8181C14.4368 17.8181 12.7273 19.5276 12.7273 21.6363C12.7273 23.745 14.4368 25.4545 16.5455 25.4545Z" fill="#008D4F"/>
</svg>
