<?xml version="1.0" standalone="no"?>
<!DOCTYPE svg PUBLIC "-//W3C//DTD SVG 20010904//EN"
 "http://www.w3.org/TR/2001/REC-SVG-20010904/DTD/svg10.dtd">
<svg version="1.0" xmlns="http://www.w3.org/2000/svg"
 width="1408.000000pt" height="1408.000000pt" viewBox="0 0 1408.000000 1408.000000"
 preserveAspectRatio="xMidYMid meet">
<metadata>
Created by potrace 1.11, written by Peter Selinger 2001-2013
</metadata>
<g transform="translate(0.000000,1408.000000) scale(0.100000,-0.100000)"
fill="#000000" stroke="none">
<path d="M10398 14075 c-2 -2 -32 -6 -68 -9 -36 -4 -78 -9 -95 -12 -39 -6 -83
-13 -120 -17 -16 -2 -48 -9 -70 -15 -22 -6 -51 -13 -65 -16 -14 -2 -59 -14
-100 -26 -41 -11 -81 -22 -87 -22 -7 -1 -13 -5 -13 -8 0 -4 -13 -10 -29 -13
-55 -11 -224 -92 -336 -160 -85 -52 -126 -82 -219 -162 -52 -44 -82 -74 -171
-169 -63 -67 -225 -293 -225 -314 0 -7 -3 -12 -7 -12 -5 0 -17 -18 -27 -40
-11 -22 -23 -40 -28 -40 -4 0 -7 -3 -6 -7 0 -5 -33 -79 -75 -165 -43 -87 -77
-161 -77 -165 0 -5 -6 -19 -13 -33 -7 -14 -21 -47 -31 -75 -10 -27 -25 -65
-33 -84 -8 -18 -16 -39 -17 -45 -2 -11 -103 -326 -114 -356 -3 -8 -6 -20 -8
-27 -1 -7 -20 -61 -42 -120 -52 -138 -105 -294 -105 -310 0 -7 -3 -13 -7 -13
-4 0 -7 -6 -8 -12 -1 -15 -3 -24 -37 -151 -15 -54 -28 -106 -31 -115 -6 -24
-53 -232 -59 -262 -2 -14 -9 -50 -15 -80 -14 -69 -16 -80 -25 -160 l-8 -65 29
26 c16 15 40 35 53 45 13 11 33 28 45 40 11 11 55 49 96 85 41 35 86 74 100
86 14 12 34 30 46 40 19 16 48 42 224 197 30 27 66 60 80 72 14 13 39 36 55
50 17 15 55 50 86 78 30 28 95 87 144 131 49 44 105 96 126 115 20 19 86 81
146 137 187 175 232 218 488 473 214 212 381 384 490 505 15 17 48 53 74 80
26 28 71 79 101 115 30 36 64 74 75 85 11 11 32 36 46 55 14 19 40 51 58 70
47 52 51 58 51 70 0 5 4 10 8 10 10 0 192 245 192 259 0 5 3 11 8 13 24 10
159 252 181 324 7 21 15 46 18 54 3 8 7 28 9 43 l3 28 -329 -2 c-181 -1 -330
-3 -332 -4z"/>
<path d="M11308 13026 c-20 -11 -64 -38 -98 -58 -34 -21 -66 -38 -71 -38 -5 0
-9 -5 -9 -10 0 -6 -10 -14 -22 -19 -13 -5 -74 -43 -137 -85 -62 -42 -117 -76
-122 -76 -5 0 -9 -4 -9 -10 0 -5 -15 -16 -33 -25 -18 -8 -44 -26 -59 -40 -15
-14 -30 -25 -33 -25 -5 0 -48 -30 -154 -107 -13 -10 -30 -24 -37 -30 -7 -7
-15 -13 -19 -13 -3 0 -27 -17 -54 -37 -27 -21 -61 -47 -77 -58 -15 -11 -36
-28 -46 -37 -10 -10 -22 -18 -27 -18 -5 0 -12 -7 -15 -16 -3 -8 -10 -12 -16
-9 -5 3 -10 2 -10 -2 0 -5 -18 -22 -41 -39 -22 -16 -51 -38 -64 -49 -13 -12
-38 -32 -56 -45 -18 -14 -37 -29 -43 -35 -6 -5 -34 -28 -61 -50 -28 -21 -52
-42 -55 -45 -3 -3 -32 -28 -65 -56 -75 -62 -114 -95 -135 -114 -8 -8 -34 -30
-55 -49 -51 -43 -188 -167 -279 -251 -115 -106 -553 -547 -656 -660 -186 -205
-187 -206 -300 -340 -12 -14 -37 -42 -56 -62 -19 -20 -34 -42 -34 -48 0 -5 -4
-10 -9 -10 -5 0 -28 -26 -52 -57 -43 -56 -73 -94 -94 -117 -6 -6 -26 -31 -45
-56 -19 -25 -37 -47 -40 -50 -3 -3 -32 -41 -65 -85 -33 -44 -65 -87 -72 -95
-6 -8 -36 -49 -67 -90 -30 -41 -59 -79 -63 -85 -5 -5 -24 -34 -43 -62 -18 -29
-37 -53 -42 -53 -4 0 -8 -7 -8 -15 0 -8 -3 -15 -8 -15 -4 0 -12 -9 -17 -19
-18 -34 -149 -226 -157 -229 -4 -2 -8 -8 -8 -14 0 -5 -15 -30 -32 -56 -18 -26
-37 -55 -43 -64 -5 -10 -51 -84 -102 -165 -50 -82 -100 -164 -112 -183 -39
-67 -106 -185 -114 -200 -4 -8 -18 -33 -30 -55 -13 -22 -36 -65 -52 -95 -17
-30 -34 -58 -38 -61 -5 -3 -8 -8 -6 -10 1 -2 -9 -24 -22 -49 -12 -25 -22 -48
-21 -52 1 -5 -3 -8 -8 -8 -6 0 -10 -6 -10 -14 0 -7 -7 -19 -15 -26 -8 -6 -13
-15 -12 -18 1 -4 -28 -68 -64 -142 -90 -182 -170 -355 -215 -463 -14 -34 -35
-81 -45 -104 -22 -50 -42 -96 -43 -103 -2 -6 -63 -162 -82 -205 -7 -16 -22
-57 -33 -90 -12 -33 -25 -69 -30 -80 -11 -25 -62 -165 -67 -185 -2 -8 -13 -42
-24 -75 -12 -33 -23 -67 -25 -75 -2 -8 -17 -54 -34 -102 -16 -49 -28 -88 -25
-88 2 0 -2 -13 -11 -30 -9 -16 -13 -30 -11 -30 3 0 1 -12 -5 -27 -9 -23 -56
-184 -75 -253 -23 -88 -87 -340 -90 -355 -2 -11 -8 -40 -14 -65 -14 -55 -17
-68 -24 -112 -3 -20 -10 -46 -15 -59 -5 -13 -9 -27 -10 -31 0 -5 -1 -9 -2 -10
0 -2 -2 -12 -3 -23 -1 -11 -6 -38 -11 -60 -5 -22 -9 -47 -10 -55 -1 -8 -6 -40
-13 -70 -6 -30 -13 -68 -16 -85 -3 -16 -7 -39 -9 -50 -6 -24 -16 -89 -21 -130
-3 -16 -7 -43 -10 -60 -19 -108 -40 -258 -52 -370 -2 -22 -6 -53 -8 -70 -10
-58 -21 -160 -31 -280 -2 -27 -6 -79 -9 -115 -3 -36 -8 -101 -12 -145 -4 -44
-8 -105 -9 -135 -2 -30 -6 -129 -10 -220 -4 -91 -8 -317 -8 -503 0 -186 -1
-336 -2 -335 -2 2 -6 17 -9 33 -8 49 -71 281 -111 410 -20 66 -40 134 -45 150
-27 100 -185 517 -247 655 -14 30 -37 80 -50 110 -31 68 -183 371 -193 385 -4
6 -21 35 -37 65 -17 30 -39 70 -49 89 -11 19 -23 40 -27 45 -4 6 -32 49 -62
96 -59 93 -63 98 -147 209 -108 140 -241 281 -407 430 -41 36 -82 73 -90 81
-9 8 -33 27 -53 42 -20 15 -42 33 -50 41 -25 24 -339 253 -428 312 -25 17 -47
32 -50 35 -6 7 -391 263 -405 270 -9 4 -331 221 -385 259 -36 24 -21 -3 33
-60 28 -31 77 -84 107 -118 30 -35 64 -73 75 -85 25 -28 91 -105 185 -216 126
-149 164 -195 259 -315 138 -174 159 -201 290 -375 72 -96 135 -179 139 -185
4 -5 23 -32 42 -60 18 -27 36 -52 39 -55 15 -13 111 -152 111 -160 0 -6 4 -10
8 -10 4 0 23 -25 41 -55 18 -30 37 -55 42 -55 5 0 9 -6 9 -14 0 -8 6 -21 13
-28 23 -25 77 -106 77 -116 0 -6 4 -12 8 -14 14 -5 310 -471 425 -668 46 -79
122 -213 159 -280 14 -25 49 -88 78 -140 53 -94 245 -475 293 -580 14 -30 42
-91 62 -135 57 -124 188 -439 188 -452 0 -7 4 -13 9 -13 4 0 8 -6 8 -12 0 -7
23 -71 50 -143 27 -71 50 -137 50 -146 0 -8 4 -19 8 -25 8 -8 92 -261 96 -288
1 -6 4 -15 7 -21 3 -5 12 -32 18 -60 7 -27 15 -57 18 -65 8 -22 11 -34 23
-135 6 -49 14 -103 17 -120 3 -16 7 -46 9 -65 1 -19 3 -35 4 -35 2 0 5 -21 15
-100 4 -33 9 -62 10 -65 2 -3 6 -26 10 -50 3 -25 10 -67 15 -95 6 -27 11 -62
12 -77 1 -16 5 -28 8 -28 3 0 5 -12 5 -28 -1 -15 2 -36 6 -47 3 -11 9 -38 13
-60 3 -22 8 -51 11 -65 4 -14 9 -38 11 -54 3 -16 12 -59 20 -95 13 -59 23
-106 28 -136 1 -5 5 -16 9 -22 5 -7 6 -13 4 -13 -3 0 -1 -17 4 -37 5 -21 12
-47 14 -58 3 -11 9 -41 15 -66 6 -26 13 -55 15 -65 2 -11 4 -21 5 -24 1 -3 2
-8 1 -12 0 -5 3 -8 8 -8 13 0 18 27 36 167 2 21 7 61 11 88 4 28 8 61 9 75 2
14 6 43 10 65 4 22 9 56 10 75 2 19 4 35 5 35 2 0 8 36 14 90 3 22 8 51 11 65
3 14 8 45 11 70 3 25 8 54 10 65 10 51 16 83 19 115 2 19 4 35 5 35 2 0 31
154 65 350 3 17 8 37 11 44 3 8 7 35 10 60 3 25 7 48 10 52 2 4 6 24 10 45 3
22 12 66 19 99 8 33 16 74 19 90 3 17 8 41 12 55 3 14 7 34 9 45 7 37 66 300
75 335 6 19 12 46 15 60 6 35 9 48 50 210 36 143 41 161 49 199 3 10 21 81 41
157 21 77 38 144 39 149 2 6 11 37 21 70 10 33 19 65 20 70 0 6 7 30 14 55 7
25 14 50 16 55 1 6 5 17 8 25 3 8 9 29 13 45 10 41 11 45 14 48 1 1 3 10 6 20
2 9 6 23 8 30 2 6 7 27 11 45 4 18 12 35 16 38 5 3 7 9 4 14 -3 4 4 29 15 54
10 25 17 46 15 46 -3 0 2 17 10 38 8 20 17 48 19 62 3 14 5 26 7 28 1 1 2 5 3
10 1 4 6 21 12 37 20 54 35 100 39 115 2 8 35 107 73 220 39 113 78 228 87
255 9 28 21 59 26 70 6 12 11 27 12 35 2 8 6 21 10 27 5 7 10 21 12 30 2 10
25 72 50 138 26 66 50 132 55 146 4 14 15 39 24 57 9 17 17 35 17 39 1 5 8 24
16 43 8 19 16 42 18 50 2 8 24 65 50 125 26 61 71 166 100 235 29 69 64 150
78 180 14 30 35 78 47 105 12 28 30 68 40 90 10 22 18 44 18 49 0 5 4 12 9 15
4 3 15 22 24 41 9 19 45 94 79 165 34 72 61 130 59 130 -1 0 9 18 22 40 14 22
38 67 54 100 16 33 39 77 52 98 13 20 21 37 18 37 -2 0 11 27 30 59 19 33 35
64 35 70 0 6 3 11 8 11 4 0 16 20 27 45 11 25 22 45 25 45 3 0 14 20 25 45 11
25 23 45 26 45 4 0 9 8 12 18 4 9 20 40 37 67 17 28 33 58 37 68 3 9 9 17 14
17 5 0 9 6 9 13 1 6 25 50 55 97 30 47 66 105 81 130 15 25 66 104 113 175 47
72 88 134 90 139 4 11 272 388 281 396 3 3 27 34 54 70 57 74 195 249 211 266
5 6 26 31 45 55 19 24 47 56 63 72 15 16 27 30 27 33 0 2 8 12 18 22 9 11 53
58 97 107 44 48 93 102 108 119 147 158 411 411 582 556 28 23 61 52 75 64 92
79 278 221 435 332 144 102 399 264 416 264 5 0 9 4 9 8 0 4 12 13 28 20 15 7
54 28 87 47 33 20 75 42 93 50 17 9 32 20 32 26 0 5 -3 8 -7 6 -5 -3 -31 -7
-60 -11 -28 -3 -57 -8 -65 -11 -7 -2 -26 -7 -43 -10 -32 -6 -57 -12 -65 -15
-3 -1 -9 -2 -13 -1 -4 1 -16 -3 -25 -8 -9 -5 -30 -11 -47 -14 -82 -14 -454
-137 -578 -190 -18 -8 -52 -23 -77 -33 -25 -10 -97 -42 -160 -72 -63 -29 -119
-54 -125 -55 -5 -1 -12 -4 -15 -7 -3 -3 -43 -25 -90 -49 -166 -85 -462 -258
-468 -273 -2 -4 -7 -8 -12 -8 -10 0 -184 -117 -241 -162 -20 -15 -42 -28 -48
-28 -6 0 -11 -4 -11 -9 0 -4 -17 -20 -37 -33 -51 -34 -236 -181 -318 -253 -13
-11 -44 -38 -70 -60 -184 -159 -483 -464 -640 -655 -21 -25 -40 -47 -44 -50
-3 -3 -28 -34 -55 -70 -27 -36 -54 -69 -60 -75 -7 -5 -58 -73 -114 -150 -56
-77 -105 -144 -109 -150 -5 -5 -45 -66 -90 -135 -46 -69 -87 -130 -93 -137 -5
-7 -10 -15 -10 -18 0 -4 -13 -26 -30 -50 -16 -24 -30 -47 -30 -50 0 -4 -13
-26 -29 -50 -16 -24 -32 -53 -36 -64 -3 -12 -11 -21 -16 -21 -5 0 -9 -6 -9
-14 0 -7 -7 -19 -15 -26 -8 -7 -13 -16 -10 -20 3 -5 1 -11 -4 -14 -5 -3 -18
-23 -29 -43 -70 -135 -114 -216 -126 -236 -8 -12 -16 -26 -17 -32 -1 -5 -35
-79 -76 -163 -40 -85 -73 -155 -73 -156 0 -2 -14 -34 -32 -72 -17 -38 -32 -71
-33 -74 -2 -7 -15 -37 -35 -85 -22 -51 -64 -158 -66 -165 0 -3 -6 -18 -13 -35
-30 -71 -129 -345 -136 -375 -2 -8 -10 -33 -18 -55 -21 -53 -130 -409 -142
-460 -2 -11 -14 -56 -26 -100 -11 -44 -22 -84 -23 -90 -1 -5 -5 -16 -9 -22 -5
-7 -6 -13 -3 -13 2 0 0 -15 -5 -32 -6 -18 -12 -41 -14 -52 -2 -10 -13 -55 -24
-100 -11 -44 -22 -92 -25 -106 -2 -14 -9 -44 -15 -67 -6 -23 -11 -45 -10 -50
1 -4 -1 -15 -4 -23 -5 -13 -29 -123 -43 -198 -5 -31 -24 -136 -30 -169 -2 -16
-9 -50 -14 -78 -5 -27 -12 -68 -16 -90 -10 -70 -15 -100 -19 -115 -2 -8 -7
-35 -10 -60 -3 -25 -7 -56 -9 -70 -5 -25 -22 -147 -31 -225 -3 -22 -7 -56 -10
-75 -2 -19 -7 -62 -10 -95 -4 -33 -8 -73 -11 -90 -3 -16 -7 -54 -9 -85 -3 -30
-7 -71 -9 -90 -4 -31 -13 -126 -21 -230 -1 -19 -6 -75 -9 -125 -12 -152 -16
-206 -21 -325 -2 -63 -5 -115 -6 -115 -3 0 -9 -249 -13 -558 -3 -191 -7 -351
-11 -356 -3 -5 -1 -12 4 -16 10 -5 7 -36 -4 -55 -3 -6 -3 -10 2 -10 4 0 9 -71
9 -158 2 -243 8 -403 15 -408 4 -2 3 -22 -1 -44 -4 -22 -5 -40 -1 -40 3 0 7
-55 8 -122 4 -156 -3 -154 -23 7 -8 66 -10 78 -13 85 -1 3 -4 23 -5 45 -2 22
-6 60 -9 85 -9 65 -25 205 -32 295 -2 17 -3 30 -4 30 -1 0 -4 38 -6 85 -3 47
-7 103 -9 125 -6 46 -16 218 -21 352 -2 50 -6 97 -10 102 -3 6 -2 11 3 11 5 0
6 16 3 38 -8 43 -5 758 3 947 8 179 23 431 32 530 3 28 7 73 9 100 2 28 6 77
9 110 2 33 7 80 10 105 3 25 8 72 12 105 10 101 22 201 29 245 2 14 7 50 10
80 3 30 7 64 9 76 2 12 7 45 11 74 4 29 9 62 11 74 3 12 6 37 9 56 2 19 6 44
8 55 3 11 8 40 11 65 3 25 8 55 10 66 2 12 7 39 10 60 3 22 8 50 11 64 3 14 8
36 10 50 3 14 8 45 11 69 2 24 7 47 9 51 3 4 7 25 10 46 4 22 9 48 12 59 4 11
8 29 9 40 1 11 4 31 7 45 3 14 8 36 11 50 3 14 8 36 11 50 3 14 7 35 10 48 2
13 6 31 9 40 3 9 8 31 11 47 3 17 11 57 19 90 8 33 12 63 10 67 -3 5 0 8 7 8
7 0 10 3 7 6 -3 3 -2 21 4 41 5 19 12 44 14 54 9 43 13 57 29 119 9 36 19 72
21 80 2 8 8 33 14 55 6 22 13 49 15 60 3 11 32 115 65 230 34 116 63 217 65
225 2 8 23 74 46 145 23 72 44 136 45 143 1 8 6 21 10 30 4 9 8 22 10 27 6 25
107 313 118 340 8 17 21 55 31 85 10 30 21 60 25 65 4 6 15 35 25 65 10 30 22
61 28 68 5 6 6 12 3 12 -4 0 0 12 8 28 8 15 35 79 60 142 24 63 53 133 62 155
10 22 18 42 19 45 2 7 16 39 60 140 36 83 55 125 111 245 15 33 28 62 29 65 0
3 26 57 58 121 31 64 57 119 57 122 0 3 13 29 30 57 16 27 27 50 24 50 -4 0
-2 6 4 13 5 6 49 89 97 182 48 94 91 175 95 180 4 6 27 46 50 90 65 120 65
120 70 125 3 3 20 34 39 70 19 36 37 67 40 70 3 3 13 19 21 35 8 17 18 32 21
35 4 3 16 23 28 45 23 44 33 59 74 122 15 23 27 44 27 48 0 3 8 18 18 33 11
15 30 45 44 67 52 83 83 130 93 137 5 4 7 8 2 8 -4 0 9 22 28 50 19 27 35 54
35 59 0 5 3 11 8 13 10 5 52 66 52 77 0 5 3 11 8 13 4 2 40 53 81 113 71 104
252 363 278 395 7 8 33 44 60 80 54 73 56 76 83 109 11 13 20 27 20 30 0 3 10
17 23 31 12 14 38 46 57 73 18 26 37 47 42 47 4 0 8 6 8 14 0 8 4 16 8 18 5 2
26 26 48 53 21 28 45 57 51 65 7 8 28 33 45 56 57 70 103 126 113 138 20 23
112 132 131 155 10 13 26 31 35 40 9 9 47 52 85 96 37 44 85 98 105 120 21 22
47 51 59 65 174 201 851 878 1059 1059 26 22 182 163 201 181 20 18 150 131
168 145 7 6 27 24 45 40 19 17 58 50 88 75 30 24 56 48 57 52 2 5 8 8 13 8 15
0 49 39 49 55 0 19 -6 18 -52 -9z"/>
<path d="M5510 12896 c0 -2 8 -10 18 -17 15 -13 16 -12 3 4 -13 16 -21 21 -21
13z"/>
<path d="M5550 12855 c0 -6 8 -22 17 -35 32 -45 107 -189 156 -300 23 -53 104
-277 113 -315 2 -5 12 -41 24 -80 12 -38 22 -74 24 -80 1 -5 12 -55 25 -110
13 -55 25 -107 28 -115 3 -8 7 -24 9 -35 1 -11 5 -33 9 -50 9 -44 34 -175 40
-210 2 -16 6 -39 9 -50 2 -11 7 -42 10 -70 4 -27 9 -57 11 -65 3 -14 13 -81
20 -140 2 -14 6 -47 9 -75 9 -69 15 -122 20 -175 3 -25 8 -70 11 -100 8 -82
14 -156 20 -245 3 -44 7 -106 10 -137 45 -476 46 -1673 1 -2414 -3 -43 -8
-126 -12 -184 -3 -58 -7 -134 -9 -170 -2 -36 -6 -96 -10 -135 -3 -38 -8 -96
-10 -127 -9 -124 -16 -202 -21 -209 -2 -4 0 -10 6 -14 5 -3 10 3 10 14 0 11 5
23 10 26 6 4 8 11 5 16 -4 5 -1 9 4 9 6 0 11 6 11 13 0 11 34 101 66 172 20
45 73 190 100 274 14 40 29 81 33 90 5 9 11 30 14 46 3 17 13 50 22 75 9 25
18 52 20 61 2 9 12 47 24 85 34 115 76 288 87 354 3 19 8 39 11 43 2 4 7 24 9
45 3 20 7 45 10 54 6 20 11 48 18 98 3 19 8 49 11 65 9 52 15 88 21 135 3 25
9 62 14 82 5 26 4 36 -3 31 -6 -3 -7 -1 -3 5 18 29 54 514 46 612 -1 14 -2 30
-2 35 3 96 2 124 -2 142 -3 13 0 25 5 28 5 4 6 11 2 18 -3 6 -8 38 -9 71 -3
55 -11 173 -19 281 -2 22 -6 58 -9 80 -3 22 -8 57 -11 79 -10 83 -30 217 -41
271 -3 17 -7 39 -9 50 -2 11 -6 32 -9 48 -3 15 -8 38 -11 52 -10 48 -15 71
-40 170 -14 55 -28 114 -31 130 -3 17 -9 37 -14 45 -4 8 -13 40 -20 70 -7 30
-15 60 -19 65 -3 6 -6 15 -7 20 -3 18 -65 198 -79 230 -7 17 -17 44 -21 60 -4
17 -10 35 -14 40 -5 6 -14 29 -21 53 -6 23 -16 42 -21 42 -4 0 -7 3 -7 8 1 4
0 10 -1 15 -1 4 -3 10 -4 15 -4 21 -62 150 -74 165 -8 9 -12 17 -9 17 12 0
-187 386 -255 495 -54 86 -58 95 -57 101 0 4 -3 10 -8 13 -5 3 -28 38 -53 76
-25 39 -47 72 -50 75 -3 3 -25 34 -49 70 -25 36 -48 67 -51 70 -4 3 -12 14
-18 25 -6 11 -12 15 -12 10z"/>
<path d="M3668 11545 c-2 -2 -19 -7 -37 -10 -18 -3 -46 -12 -61 -20 -63 -33
-42 -74 66 -129 45 -23 99 -55 120 -70 49 -37 156 -149 192 -201 15 -22 35
-49 44 -59 10 -11 21 -29 24 -40 4 -12 10 -23 14 -26 10 -7 161 -287 158 -293
-1 -1 17 -41 40 -90 23 -48 42 -91 42 -95 0 -4 7 -20 16 -37 9 -16 25 -52 36
-80 11 -27 26 -63 33 -80 8 -16 30 -70 51 -120 20 -49 39 -94 42 -100 4 -5 7
-12 7 -15 1 -3 9 -22 18 -44 9 -21 17 -41 17 -43 0 -5 10 -27 64 -146 20 -44
36 -80 36 -82 0 -2 14 -34 32 -72 17 -37 32 -70 33 -73 0 -3 13 -32 29 -65 15
-33 34 -73 41 -90 7 -16 23 -52 35 -78 12 -26 23 -53 24 -60 2 -7 7 -23 13
-37 31 -77 117 -330 115 -340 0 -3 3 -9 8 -15 4 -5 11 -26 15 -45 4 -19 12
-41 17 -47 6 -7 8 -13 4 -13 -3 0 0 -16 8 -35 9 -20 15 -36 15 -38 -1 -1 5
-22 12 -47 7 -25 13 -48 15 -52 1 -5 2 -9 4 -10 1 -2 3 -12 5 -22 2 -10 11
-42 20 -70 10 -28 19 -59 21 -69 2 -10 6 -27 9 -37 3 -10 8 -27 10 -37 3 -10
15 -52 26 -93 21 -76 53 -196 69 -260 4 -19 29 -116 55 -215 25 -99 48 -189
50 -200 2 -11 4 -20 5 -20 1 0 3 -7 5 -15 2 -8 6 -26 9 -40 3 -14 10 -43 15
-65 5 -22 12 -51 16 -65 4 -14 8 -34 10 -45 2 -11 6 -29 9 -40 6 -28 46 -195
53 -225 3 -14 8 -32 9 -41 2 -8 10 -42 18 -74 9 -31 13 -62 10 -66 -3 -5 -1
-9 3 -9 5 0 10 -11 11 -25 1 -13 13 -73 27 -132 46 -197 56 -243 61 -271 3
-15 10 -47 15 -72 6 -25 13 -56 15 -70 3 -14 9 -41 14 -60 5 -19 12 -51 14
-70 3 -19 10 -53 15 -75 5 -22 12 -52 15 -68 2 -15 7 -35 10 -45 6 -20 16 -66
21 -102 2 -14 10 -55 19 -91 8 -36 17 -82 20 -103 4 -21 8 -41 10 -45 2 -3 7
-22 10 -41 12 -74 16 -96 23 -120 3 -14 7 -31 9 -38 4 -23 14 -26 15 -6 2 27
5 44 29 174 11 63 22 128 25 143 2 16 6 40 9 55 3 15 8 47 11 71 3 23 7 46 9
50 3 6 12 69 22 151 2 19 6 46 9 60 3 14 7 43 10 65 11 92 16 132 21 158 2 15
6 51 9 80 2 28 6 63 9 77 3 14 7 57 11 95 3 39 8 84 10 100 2 17 7 59 10 95 3
36 8 85 11 110 3 25 7 77 9 115 2 39 4 70 5 70 1 0 3 34 5 75 2 41 7 111 10
155 11 139 15 321 15 635 0 344 -7 547 -26 710 -2 19 -6 62 -8 95 -3 33 -8 75
-11 94 -5 30 -9 59 -20 166 -1 17 -5 37 -8 45 -3 8 -8 36 -11 63 -3 26 -7 51
-10 55 -2 4 -7 31 -11 59 -3 29 -10 66 -15 83 -5 17 -9 33 -9 35 -1 3 -1 6 -2
8 -1 5 -7 33 -12 60 -6 27 -8 36 -29 112 -10 37 -44 152 -54 185 -3 8 -5 16
-5 17 0 5 -51 139 -64 170 -8 17 -15 34 -15 37 0 3 -13 33 -29 66 -16 33 -26
60 -23 60 4 0 2 4 -4 8 -6 4 -23 32 -38 62 -53 107 -172 282 -266 390 -102
119 -136 155 -210 230 -47 47 -114 110 -149 140 -35 30 -69 60 -75 65 -52 47
-202 155 -214 155 -5 0 -17 9 -27 20 -10 11 -24 20 -31 20 -7 0 -14 3 -16 8
-7 17 -314 172 -340 172 -8 0 -18 4 -24 9 -9 9 -157 58 -199 67 -11 2 -31 6
-45 9 -14 4 -36 8 -50 11 -14 2 -38 7 -54 10 -34 7 -232 14 -238 9z"/>
<path d="M3477 11404 c-3 -5 -8 -32 -11 -58 -3 -27 -10 -54 -16 -61 -5 -6 -7
-14 -4 -17 5 -5 -44 -164 -65 -213 -5 -11 -14 -33 -20 -50 -6 -16 -16 -43 -22
-60 -7 -16 -13 -32 -13 -35 -3 -11 -71 -177 -83 -200 -7 -14 -13 -31 -13 -37
0 -7 -9 -32 -20 -55 -20 -44 -90 -225 -95 -243 -1 -5 -7 -23 -14 -39 -6 -16
-13 -36 -14 -45 -1 -9 -6 -22 -10 -28 -5 -7 -10 -21 -12 -30 -3 -10 -19 -63
-36 -118 -34 -110 -55 -187 -64 -230 -2 -11 -13 -65 -25 -120 -21 -105 -32
-185 -34 -247 -1 -21 -3 -38 -6 -38 -7 0 -4 -249 3 -320 8 -70 17 -130 23
-152 3 -10 7 -29 10 -43 11 -63 60 -199 104 -290 41 -86 101 -188 120 -205 3
-3 16 -22 30 -42 14 -21 28 -38 33 -38 4 0 7 -5 7 -10 0 -13 364 -476 400
-510 3 -3 21 -25 41 -50 20 -25 45 -55 55 -66 11 -12 37 -43 59 -70 22 -26 45
-52 50 -58 6 -6 37 -42 70 -81 33 -38 65 -75 70 -81 6 -6 35 -39 65 -74 30
-34 76 -86 102 -114 26 -28 48 -54 48 -57 0 -3 21 -28 48 -55 26 -27 61 -66
77 -85 17 -20 62 -71 100 -114 89 -99 109 -121 170 -191 28 -32 57 -65 65 -73
8 -9 40 -45 70 -80 30 -35 64 -74 75 -85 11 -12 43 -48 70 -81 28 -32 62 -72
77 -89 49 -57 70 -81 96 -115 15 -18 42 -49 60 -68 17 -18 32 -36 32 -39 0 -6
32 -45 91 -110 10 -12 19 -25 19 -28 0 -3 8 -14 18 -24 9 -10 26 -30 37 -46
11 -15 30 -40 43 -54 13 -15 30 -39 38 -54 8 -16 19 -28 24 -28 5 0 12 -9 15
-20 3 -11 12 -26 19 -32 16 -18 134 -210 171 -280 16 -31 33 -54 37 -52 5 3 6
9 4 13 -3 4 -8 23 -11 42 -3 19 -11 52 -16 74 -6 22 -13 47 -14 55 -2 8 -22
78 -45 155 -23 77 -45 154 -50 170 -4 17 -16 55 -25 85 -10 30 -18 60 -20 65
-1 6 -5 19 -9 30 -17 45 -19 50 -21 61 -2 6 -17 56 -34 110 -17 55 -31 105
-31 112 0 7 -4 20 -9 30 -11 19 -23 51 -27 69 -2 14 -43 140 -51 163 -3 8 -7
20 -9 27 -3 16 -52 167 -72 223 -9 25 -17 50 -17 55 -1 6 -4 17 -7 25 -7 16
-52 152 -53 160 -2 11 -17 56 -25 75 -7 18 -82 250 -86 268 -1 4 -3 9 -4 12
-1 3 -3 9 -4 14 0 5 -4 13 -8 17 -5 4 -8 17 -8 29 0 12 -3 25 -7 29 -5 4 -9
12 -9 17 -1 5 -2 10 -4 12 -1 1 -3 9 -5 17 -3 17 -92 286 -102 310 -3 8 -7 20
-8 25 -2 6 -26 79 -54 164 -28 84 -51 160 -51 167 0 8 -5 14 -12 14 -6 0 -9 3
-5 6 3 3 -1 25 -10 47 -8 23 -16 49 -18 57 -2 8 -13 42 -25 75 -12 33 -24 69
-27 80 -2 11 -8 29 -13 40 -9 22 -53 154 -56 170 -3 17 -55 158 -69 190 -7 17
-37 86 -65 155 -29 69 -57 131 -64 139 -6 8 -10 15 -8 15 4 1 -11 42 -50 130
-48 113 -53 123 -123 291 -37 88 -76 178 -85 200 -10 22 -30 69 -45 105 -14
36 -32 79 -40 95 -14 32 -37 86 -40 95 -1 3 -9 23 -19 45 -9 22 -33 78 -53
125 -19 47 -43 104 -54 127 -10 23 -19 44 -19 47 0 3 -16 40 -35 82 -19 41
-35 78 -35 81 0 5 -15 40 -46 108 -7 17 -28 64 -45 105 -17 41 -37 89 -44 105
-7 17 -26 63 -44 104 -17 40 -31 79 -31 86 0 8 -3 15 -7 17 -7 3 -50 95 -57
123 -9 32 -24 57 -29 49z"/>
</g>
</svg>
