<svg width="27" height="44" viewBox="0 0 27 44" fill="none" xmlns="http://www.w3.org/2000/svg">
<path d="M10.7999 43.3645C10.1368 39.5511 7.76837 18.8222 27.4736 2.93335C27.4736 2.93335 8.85784 12.5645 9.56837 34.8089C9.09468 32.7556 8.28942 30.5067 7.05784 28.5022C5.58942 26.1067 3.31574 24.9333 0.473633 22.9778C0.473633 22.9778 7.57889 30.3111 9.89995 38.6711C10.0894 40.2356 10.3736 41.8489 10.7999 43.56C10.7999 43.6089 10.7999 43.6578 10.7999 43.7067C10.7999 43.7067 10.7999 43.6578 10.7999 43.6089C10.8473 43.7556 10.8473 43.8533 10.8947 44C10.8947 44 10.8473 43.8533 10.7999 43.56C10.7999 43.4622 10.7999 43.3645 10.8473 43.2667C11.2263 39.9422 14.2105 19.2622 27.0947 12.5645C27.0947 12.5156 9.14205 14.7645 10.7999 43.3645Z" fill="#008D4F"/>
<path d="M26.0525 6.34789e-06C21.221 -0.244438 19.042 1.32001 17.621 6.30667C16.7683 8.45779 16.5789 10.2667 16.5789 10.2667C26.4789 1.76001 26.0525 6.34789e-06 26.0525 6.34789e-06Z" fill="#31BA84"/>
<path d="M10.4211 21.5111C15.1579 10.7556 8.52637 3.42224 8.52637 3.42224C11.8422 7.33335 10.4211 21.5111 10.4211 21.5111Z" fill="#31BA84"/>
<path d="M1.42102 17.6C3.88417 20.9734 8.0526 24.9334 8.99996 26.8889C9.94733 28.8445 5.68418 16.1334 5.68418 16.1334C5.68418 16.1334 2.51049 8.65338 2.36839 8.31116C2.22628 10.12 -0.947404 14.3734 1.42102 17.6Z" fill="#31BA84"/>
<path d="M2.84202 8.4089C4.26307 8.99556 4.92623 11.5867 6.15781 14.1778C7.57886 17.1111 9.4736 26.8889 9.4736 26.8889C9.4736 26.8889 11.842 15.6445 8.52623 11.2445C5.30518 6.94223 1.42097 7.82223 2.84202 8.4089Z" fill="#31BA84"/>
</svg>
