<svg width="53" height="26" viewBox="0 0 53 26" fill="none" xmlns="http://www.w3.org/2000/svg">
<path fill-rule="evenodd" clip-rule="evenodd" d="M7.62079 15.0124V13.4099C7.62079 13.0095 7.28689 12.6819 6.87879 12.6819H4.13242C4.07385 12.6816 4.01579 12.6926 3.9616 12.7145C3.90742 12.7363 3.85818 12.7685 3.81674 12.8091C3.7753 12.8497 3.74247 12.898 3.72016 12.9511C3.69784 13.0043 3.68649 13.0612 3.68674 13.1187C3.68674 13.3858 3.88429 13.5801 4.13194 13.5801H6.59403V15.2308C6.18593 15.6312 5.36925 16.1049 4.3796 16.1049C2.57278 16.1049 1.1996 14.7207 1.1996 12.8029C1.1996 10.8732 2.57278 9.51366 4.3796 9.51366C5.1958 9.51366 6.02501 9.84126 6.54441 10.3877C6.64366 10.4846 6.75496 10.5333 6.87831 10.5333C7.15053 10.5333 7.34856 10.3268 7.34856 10.0597C7.34856 9.93864 7.31146 9.80486 7.21269 9.71977C6.55693 9.07686 5.61642 8.61548 4.3796 8.61548C2.02881 8.61548 0.135742 10.2904 0.135742 12.8029C0.135742 15.3159 2.02881 17.0031 4.3796 17.0031C5.83951 17.0031 7.62079 16.2623 7.62079 15.0124ZM25.9973 16.3838C25.9976 16.3263 25.9862 16.2694 25.9639 16.2162C25.9416 16.1631 25.9088 16.1148 25.8673 16.0742C25.8259 16.0336 25.7767 16.0014 25.7225 15.9796C25.6683 15.9578 25.6102 15.9467 25.5517 15.947H22.0874V9.16148C22.087 9.03283 22.0347 8.90956 21.942 8.8186C21.8493 8.72763 21.7237 8.67636 21.5926 8.67599C21.2832 8.67599 21.0606 8.89439 21.0606 9.16148V16.1167C21.0606 16.5176 21.3945 16.8447 21.8026 16.8447H25.5517C25.7993 16.8447 25.9969 16.6509 25.9969 16.3838H25.9973ZM44.8061 9.21017C44.8061 8.93126 44.5709 8.67599 44.2496 8.67599C44.027 8.67599 43.8289 8.80977 43.7547 9.00406L41.0821 15.7404L38.4099 9.00406C38.3702 8.90718 38.3019 8.82417 38.2137 8.7657C38.1255 8.70724 38.0215 8.67599 37.9151 8.67599C37.5812 8.67599 37.3586 8.96766 37.3586 9.21017C37.3586 9.28297 37.3707 9.34348 37.3957 9.40399L40.2408 16.372C40.309 16.5329 40.4239 16.6705 40.5713 16.7676C40.7187 16.8647 40.892 16.917 41.0696 16.918H41.0946C41.4415 16.918 41.775 16.6996 41.9113 16.372L44.769 9.40399C44.794 9.34348 44.8061 9.27068 44.8061 9.21017ZM52.9368 16.3838C52.9368 16.6268 52.7137 16.918 52.3798 16.918C52.1697 16.918 51.9717 16.7965 51.8849 16.5904L51.2663 15.0488H47.1588L46.5401 16.5899C46.4534 16.7965 46.2559 16.918 46.0453 16.918C45.7239 16.918 45.4888 16.6627 45.4888 16.3838C45.4888 16.3233 45.5013 16.2505 45.5259 16.19L48.3715 9.22199C48.4395 9.05854 48.5562 8.919 48.7063 8.8216C48.8563 8.72419 49.0329 8.67345 49.2128 8.67599C49.3887 8.67732 49.5603 8.72999 49.7057 8.82731C49.851 8.92463 49.9636 9.06218 50.029 9.22246L52.8992 16.1895C52.9242 16.2505 52.9368 16.3233 52.9368 16.3838ZM50.957 14.1506L49.2128 9.79304L47.4561 14.1506H50.957Z" fill="white"/>
<path d="M32.0382 3.73127C26.9593 -1.22764 18.7251 -1.22764 13.6462 3.73127C13.4487 3.92414 13.4487 4.23709 13.6462 4.42996C13.8438 4.62283 14.1637 4.62283 14.3612 4.42996C19.045 -0.143206 26.6389 -0.143206 31.3227 4.42996C31.5202 4.62283 31.8406 4.62283 32.0382 4.42996C32.2357 4.23709 32.2357 3.92414 32.0382 3.73127ZM13.6462 21.9133C18.7246 26.8722 26.9588 26.8722 32.0382 21.9133C32.2357 21.7204 32.2357 21.4075 32.0382 21.2146C31.9431 21.1219 31.8145 21.0698 31.6804 21.0698C31.5464 21.0698 31.4177 21.1219 31.3227 21.2146C26.6394 25.7878 19.045 25.7878 14.3612 21.2146C14.2662 21.122 14.1377 21.07 14.0037 21.07C13.8698 21.07 13.7413 21.122 13.6462 21.2146C13.4487 21.4075 13.4487 21.7204 13.6462 21.9133Z" fill="#FF5722"/>
<path fill-rule="evenodd" clip-rule="evenodd" d="M40.5953 23.0265V20.2583C40.593 20.1709 40.5559 20.0879 40.492 20.0271C40.428 19.9663 40.3423 19.9325 40.2532 19.933C40.1845 19.9323 40.1171 19.9513 40.0592 19.9875C40.0013 20.0238 39.9553 20.0758 39.927 20.1372L38.9764 22.3955L38.0311 20.1372C38.0022 20.0761 37.9561 20.0244 37.8982 19.9882C37.8403 19.952 37.773 19.9328 37.7044 19.933C37.6153 19.9325 37.5296 19.9663 37.4656 20.0271C37.4017 20.0879 37.3646 20.1709 37.3623 20.2583V23.027C37.3623 23.1386 37.4519 23.2256 37.5656 23.2256C37.5927 23.2263 37.6196 23.2217 37.6449 23.2121C37.6701 23.2025 37.6931 23.188 37.7125 23.1695C37.7319 23.1509 37.7473 23.1288 37.7578 23.1043C37.7684 23.0799 37.7738 23.0536 37.7738 23.027V20.5305L38.8771 23.1627C38.8845 23.1814 38.8975 23.1974 38.9144 23.2087C38.9312 23.22 38.9512 23.2261 38.9716 23.226C39.0212 23.226 39.0607 23.2019 39.0756 23.1627L40.1838 20.5305V23.0265C40.1838 23.1386 40.273 23.226 40.3867 23.226C40.4138 23.2268 40.4408 23.2222 40.466 23.2125C40.4913 23.2029 40.5143 23.1883 40.5337 23.1698C40.5531 23.1512 40.5685 23.129 40.579 23.1045C40.5895 23.08 40.5949 23.0536 40.5948 23.027L40.5953 23.0265ZM43.8765 23.0124C43.8766 22.9894 43.8721 22.9666 43.8632 22.9453C43.8543 22.924 43.8411 22.9047 43.8246 22.8884C43.808 22.8721 43.7883 22.8593 43.7666 22.8505C43.7449 22.8418 43.7217 22.8373 43.6982 22.8375H42.0938V21.7204H43.663C43.7623 21.7204 43.8413 21.6429 43.8413 21.5455C43.8413 21.4387 43.7623 21.3611 43.663 21.3611H42.0938V20.3164H43.6982C43.797 20.3164 43.8765 20.2389 43.8765 20.1415C43.8765 20.0351 43.797 19.9571 43.6982 19.9571H41.98C41.9013 19.9574 41.8259 19.9882 41.7703 20.0429C41.7147 20.0975 41.6834 20.1716 41.6832 20.2488V22.9055C41.6832 23.0658 41.8167 23.1967 41.98 23.1967H43.6977C43.797 23.1967 43.876 23.1192 43.876 23.0124H43.8765ZM47.6597 21.5795C47.6597 22.5023 46.9914 23.1967 45.9666 23.1967H45.135C45.0564 23.1965 44.981 23.1657 44.9254 23.1112C44.8698 23.0566 44.8384 22.9827 44.8382 22.9055V20.2488C44.8382 20.0881 44.9717 19.9571 45.135 19.9571H45.9666C46.9914 19.9571 47.6597 20.6615 47.6597 21.5795ZM47.2343 21.5795C47.2343 20.8799 46.7838 20.3169 45.9671 20.3169H45.2492V22.8375H45.9671C46.7688 22.8375 47.2343 22.274 47.2343 21.5795ZM49.0305 23.027V20.1226C49.0304 20.0711 49.0095 20.0217 48.9723 19.9853C48.9352 19.9489 48.8849 19.9284 48.8325 19.9283C48.7086 19.9283 48.6195 20.0157 48.6195 20.1221V23.027C48.6195 23.1386 48.7086 23.2256 48.8223 23.2256C48.8494 23.2263 48.8763 23.2217 48.9016 23.2121C48.9268 23.2025 48.9498 23.188 48.9692 23.1695C48.9886 23.1509 49.004 23.1288 49.0145 23.1043C49.0251 23.0799 49.0305 23.0536 49.0305 23.027ZM52.951 23.0124C52.9486 23.0691 52.9242 23.1227 52.8829 23.1624C52.8415 23.2021 52.7863 23.2249 52.7284 23.226C52.6858 23.226 52.6442 23.2135 52.6089 23.1901C52.5736 23.1667 52.5463 23.1334 52.5304 23.0946L52.2828 22.4782H50.6393L50.3916 23.0946C50.3758 23.1333 50.3485 23.1665 50.3133 23.1899C50.2781 23.2134 50.2366 23.2259 50.1941 23.226C50.1356 23.2267 50.0793 23.2045 50.0375 23.1645C49.9957 23.1244 49.9718 23.0697 49.971 23.0124C49.971 22.9878 49.9758 22.9589 49.9854 22.9344L51.1245 20.1467C51.1513 20.0819 51.1971 20.0264 51.2562 19.9874C51.3153 19.9483 51.3849 19.9275 51.4562 19.9275C51.5274 19.9275 51.5971 19.9483 51.6562 19.9874C51.7153 20.0264 51.7611 20.0819 51.7879 20.1467L52.9361 22.9344C52.9457 22.9589 52.951 22.9878 52.951 23.0124ZM52.1589 22.1189L51.4608 20.375L50.7583 22.1184H52.1589V22.1189Z" fill="white"/>
<path d="M14.1336 17.0878C13.5611 17.0937 12.9932 16.9882 12.4626 16.7773C11.9319 16.5665 11.4492 16.2545 11.0423 15.8595C10.6353 15.4644 10.3123 14.9941 10.0918 14.4757C9.87133 13.9574 9.75781 13.4013 9.75781 12.8396C9.75781 12.2779 9.87133 11.7218 10.0918 11.2034C10.3123 10.6851 10.6353 10.2148 11.0423 9.81971C11.4492 9.42464 11.9319 9.11267 12.4626 8.90184C12.9932 8.691 13.5611 8.5855 14.1336 8.59142C15.274 8.60323 16.3637 9.056 17.1659 9.8514C17.9681 10.6468 18.418 11.7206 18.418 12.8396C18.418 13.9586 17.9681 15.0324 17.1659 15.8278C16.3637 16.6232 15.274 17.0759 14.1336 17.0878ZM14.1336 16.1168C14.5756 16.122 15.0143 16.0411 15.4242 15.8787C15.8341 15.7163 16.2071 15.4758 16.5215 15.1709C16.836 14.8661 17.0856 14.5031 17.256 14.1029C17.4264 13.7027 17.5142 13.2733 17.5142 12.8396C17.5142 12.4059 17.4264 11.9765 17.256 11.5763C17.0856 11.1761 16.836 10.8131 16.5215 10.5082C16.2071 10.2034 15.8341 9.96283 15.4242 9.80047C15.0143 9.63812 14.5756 9.5572 14.1336 9.56241C13.2547 9.57276 12.4153 9.92259 11.7975 10.5361C11.1797 11.1495 10.8333 11.9772 10.8333 12.8396C10.8333 13.702 11.1797 14.5296 11.7975 15.1431C12.4153 15.7566 13.2547 16.1064 14.1336 16.1168ZM31.453 17.0878C30.8806 17.0937 30.3126 16.9882 29.782 16.7773C29.2514 16.5665 28.7686 16.2545 28.3617 15.8595C27.9548 15.4644 27.6317 14.9941 27.4112 14.4757C27.1908 13.9574 27.0773 13.4013 27.0773 12.8396C27.0773 12.2779 27.1908 11.7218 27.4112 11.2034C27.6317 10.6851 27.9548 10.2148 28.3617 9.81971C28.7686 9.42464 29.2514 9.11267 29.782 8.90184C30.3126 8.691 30.8806 8.5855 31.453 8.59142C32.5935 8.60323 33.6831 9.056 34.4853 9.8514C35.2875 10.6468 35.7375 11.7206 35.7375 12.8396C35.7375 13.9586 35.2875 15.0324 34.4853 15.8278C33.6831 16.6232 32.5935 17.0759 31.453 17.0878ZM31.453 16.1168C31.895 16.122 32.3337 16.0411 32.7436 15.8787C33.1535 15.7163 33.5265 15.4758 33.841 15.1709C34.1554 14.8661 34.4051 14.5031 34.5755 14.1029C34.7459 13.7027 34.8336 13.2733 34.8336 12.8396C34.8336 12.4059 34.7459 11.9765 34.5755 11.5763C34.4051 11.1761 34.1554 10.8131 33.841 10.5082C33.5265 10.2034 33.1535 9.96283 32.7436 9.80047C32.3337 9.63812 31.895 9.5572 31.453 9.56241C30.5741 9.57276 29.7348 9.92259 29.117 10.5361C28.4992 11.1495 28.1527 11.9772 28.1527 12.8396C28.1527 13.702 28.4992 14.5296 29.117 15.1431C29.7348 15.7566 30.5741 16.1064 31.453 16.1168Z" fill="white"/>
</svg>
